<svg width="489" height="598" viewBox="0 0 489 598" fill="none" xmlns="http://www.w3.org/2000/svg">
<path d="M169.427 275.956C170.969 273.9 174.052 271.202 176.365 273.515C178.934 276.598 178.292 280.837 178.42 284.563C178.805 293.427 178.035 302.292 176.108 310.899C174.181 319.378 168.014 326.444 167.115 335.308C166.729 340.447 165.445 345.457 165.445 350.596C165.445 359.589 163.903 368.71 164.931 377.703C165.702 382.585 165.702 387.466 165.059 392.22C162.361 404.039 158.122 415.344 152.212 425.879C146.174 436.798 141.806 449.003 142.063 461.593C142.192 462.749 141.678 464.804 143.477 465.061C149.515 461.85 154.011 456.326 158.893 451.701C166.472 444.892 172.125 436.284 175.08 426.521C177.392 413.674 176.493 400.57 176.108 387.595C174.823 379.758 175.337 371.793 175.208 363.957C175.208 358.176 174.823 352.394 176.236 346.742C178.035 339.933 180.347 333.253 183.173 326.829C184.073 324.902 185.614 321.947 188.312 322.847C190.111 324.517 189.854 327.343 189.725 329.655C187.284 345.457 183.687 361.387 186.257 377.446C187.156 383.098 186.642 389.008 187.413 394.789C193.065 387.209 192.295 377.574 195.378 369.095C196.791 363.7 199.874 358.818 200.774 353.165C201.031 346.485 203.343 340.061 202.701 333.253C202.444 327.6 201.031 322.076 198.461 317.066C196.92 313.854 197.177 310.257 196.92 306.917C196.663 302.677 195.892 298.309 196.92 294.198C197.433 292.785 198.461 291.5 199.874 290.858C201.288 290.216 202.829 289.959 204.371 290.473C207.197 293.556 208.096 297.795 211.051 300.878C212.978 302.677 216.704 303.062 218.245 300.622C222.356 295.226 223.127 288.032 227.11 282.507C228.908 279.81 231.221 277.497 233.919 275.699C234.432 275.313 234.946 275.056 235.589 274.928C236.231 274.799 236.873 274.799 237.387 274.928C237.901 275.056 238.543 275.313 239.057 275.699C239.571 276.084 239.957 276.469 240.342 276.983C241.498 279.938 241.498 283.278 240.47 286.233C237.259 295.226 233.405 303.833 228.651 312.055C223.513 321.177 221.457 331.454 218.888 341.475C216.061 353.165 210.409 363.957 205.912 375.005C204.114 379.373 202.829 383.998 201.159 388.494C199.746 392.22 197.433 395.56 196.02 399.285C194.222 404.296 192.68 409.435 191.524 414.573C190.111 420.354 187.413 425.879 186 431.66C184.587 436.927 182.66 442.066 180.476 446.947C184.844 443.093 188.441 438.468 191.138 433.33C195.892 425.75 201.673 418.813 205.398 410.591C208.482 403.525 210.923 396.331 213.364 389.008C215.162 383.869 218.631 379.758 220.815 374.748C222.742 369.095 221.2 362.929 223.256 357.276C225.183 348.026 231.221 340.318 233.662 331.326C234.561 328.114 236.231 325.159 238.415 322.718C239.828 321.305 242.012 321.947 243.811 321.69C245.995 327.343 241.241 332.225 239.957 337.492C246.123 331.197 250.748 322.204 259.612 319.25C263.595 317.708 263.723 322.718 262.696 325.159C258.97 333.253 252.29 339.419 245.995 345.586C243.425 348.283 241.627 351.752 241.113 355.349C248.435 352.908 253.574 345.843 261.539 345.072C264.366 344.429 265.522 348.155 264.237 350.082C261.025 356.762 256.144 362.415 250.234 366.783C242.141 373.078 234.047 380.529 231.221 390.678C230.064 395.175 228.009 399.285 225.054 403.011C221.971 407.251 217.731 411.362 218.374 417.143C227.367 413.417 233.405 405.452 238.286 397.358C241.498 390.678 247.793 386.31 253.446 381.942C260.383 376.675 268.605 372.564 273.23 364.727C276.442 359.075 279.653 353.294 280.167 346.742C281.323 338.391 280.167 329.784 281.837 321.433C283.251 311.413 286.591 301.649 291.858 292.913C294.941 286.618 300.08 281.737 305.219 276.983C307.017 275.056 308.687 278.14 308.173 279.81C307.66 286.105 304.448 291.757 302.778 297.795C301.108 303.833 298.153 309.101 296.997 315.139C301.108 313.083 304.191 309.357 308.559 307.43C311.514 306.146 314.982 306.403 318.194 306.274C318.451 307.559 319.607 309.101 318.451 310.385C314.083 316.166 307.66 320.02 303.677 326.187C299.951 336.207 298.795 347.256 293.656 356.762C290.959 361.387 288.518 366.269 286.334 371.151C280.553 381.814 271.431 389.907 262.31 397.615C255.116 404.938 246.123 410.976 241.884 420.483C248.564 416.243 256.272 414.188 262.824 409.82C268.477 405.966 276.57 405.709 280.553 399.542C285.563 391.963 293.143 386.182 296.483 377.574C300.208 369.738 302.906 360.616 310.229 354.964C312.67 352.651 315.882 351.238 319.35 351.238C319.479 354.964 316.781 357.79 315.368 360.873C313.441 364.856 312.413 369.224 310.743 373.463C309.458 376.29 308.559 379.373 308.045 382.456C306.632 389.522 303.806 396.202 299.566 402.112C293.785 408.921 287.233 415.087 280.167 420.483C275.414 424.465 269.761 426.906 264.366 429.861C254.217 434.743 243.682 438.468 232.762 440.909C227.624 442.194 222.356 441.166 217.089 441.809C213.492 442.708 210.666 445.149 207.839 447.333C204.628 449.902 200.902 451.701 197.947 454.655C194.093 458.638 190.239 462.621 186.385 466.603C180.476 471.742 173.538 475.596 166.087 477.78C161.334 479.193 157.351 482.405 153.24 484.846C149.9 486.901 146.56 489.085 144.633 492.554C141.935 497.692 137.824 501.932 134.612 506.814C132.3 509.897 129.859 512.852 127.033 515.421C123.949 518.504 119.453 519.918 117.14 523.643C114.828 526.983 112.259 530.067 109.689 533.278C106.606 537.389 105.064 542.528 102.752 547.024C100.568 550.879 99.0264 555.118 97.9987 559.486L73.8465 559.486C72.8188 549.465 78.7284 540.858 83.2248 532.636C85.2803 528.653 88.8774 524.671 88.1066 519.789C86.8219 514.136 83.6102 509.255 82.9678 503.474C82.0686 492.811 82.9678 481.762 87.5927 471.999C92.2176 462.235 90.676 451.444 92.2176 441.295C92.9884 437.569 95.0439 434.486 96.0717 430.889C96.714 426.778 96.714 422.538 95.9432 418.427C94.9154 408.664 95.4293 398.9 97.3563 389.265C98.898 382.071 102.624 375.647 105.193 368.838C107.248 359.846 109.946 351.11 113.286 342.502C117.012 333.766 117.012 323.874 121.252 315.267C122.151 313.34 123.307 311.67 124.849 310.385C126.39 308.972 128.189 307.944 130.116 307.302C132.685 307.43 133.713 310.385 134.612 312.441C137.182 321.819 132.685 331.069 129.602 339.804C126.519 349.183 122.022 358.176 121.38 368.196C120.866 375.133 119.453 381.942 119.453 388.88C119.068 399.157 117.397 409.435 116.113 419.584C115.599 428.962 116.113 438.725 113.543 447.975C110.332 460.051 110.846 473.026 105.964 484.846C104.037 489.342 102.11 493.967 102.367 499.106C109.047 495.38 116.627 491.654 119.967 484.46C122.922 478.551 126.262 472.513 126.005 465.704C125.876 455.298 126.904 444.892 129.217 434.743C131.015 428.448 133.841 422.538 137.695 417.271C140.907 412.389 142.834 406.737 145.275 401.469C149.9 391.834 151.442 381.171 152.855 370.894C153.369 360.103 152.726 349.183 153.112 338.391C153.497 334.666 151.57 331.326 151.056 327.728C149.129 316.68 148.358 305.503 148.615 294.198C148.872 290.601 149.643 284.691 154.525 285.462C156.966 293.427 153.754 302.163 157.737 309.743C161.334 306.917 161.719 302.035 162.362 297.795C163.389 290.473 164.931 282.379 169.427 275.956Z" fill="#405466"/>
<path d="M-15.213 28.3972L-5.67712 23.1707C-5.50912 26.4805 -4.99546 29.8204 -4.22863 33.0215C-2.79803 37.8341 0.834794 41.6591 2.60295 46.2867C4.74112 51.5894 5.08277 57.2183 5.24754 62.7247C5.24109 67.1178 7.62999 71.0759 8.47554 75.2215C8.95674 77.7012 9.6911 80.0422 10.5561 82.4213C11.1014 78.6108 11.3009 74.7703 11.2855 70.9379C10.9787 67.375 11.1864 63.7495 11.8704 60.1921C12.7451 55.9816 15.1412 52.1443 16.0159 47.9338C17.005 43.3313 17.1721 38.6307 17.8999 33.952C18.661 26.7311 20.851 19.7146 24.5787 13.5014C25.2895 11.795 28.093 11.9045 28.381 13.8316C29.0335 17.4246 28.6107 21.0582 29.1325 24.6131C29.5204 30.3264 31.0298 36.0835 29.7356 41.7311C29.0516 45.2884 27.6762 48.7857 27.0385 52.4274C26.4007 56.0691 28.112 59.1915 28.2038 62.7626C28.4586 67.232 27.377 71.6656 27.2018 76.1512C28.7159 72.9071 30.0993 69.6249 31.2596 66.1357C32.5887 62.554 35.9943 60.3583 37.9847 57.1823C41.9299 52.1668 42.5303 45.2534 46.4754 40.2379C47.9838 37.9845 49.5848 35.9 51.3626 33.9379C51.6539 33.6685 52.0758 33.4372 52.5059 33.421C52.8897 33.3204 53.366 33.3885 53.7579 33.5029C54.1499 33.6173 54.5036 33.8624 54.8193 34.2381C55.1349 34.6138 55.32 34.9513 55.3362 35.3814C55.9562 38.1143 55.2859 40.8959 54.9151 43.6231C54.3942 48.0787 52.8363 52.4442 51.8391 56.8316C50.7575 61.2653 52.7026 66.0154 51.2371 70.5497C49.6874 75.1303 47.615 79.5583 45.0582 83.7031C43.6886 86.2096 42.542 88.923 41.6568 91.7128C40.3658 95.1638 38.6367 98.416 37.5226 101.99C36.4305 105.002 35.9071 108.252 34.3768 111.066C30.9347 118.001 29.1148 125.692 29.0613 133.403C28.985 133.665 28.8243 133.972 28.533 134.242C28.3261 134.465 27.9886 134.65 27.6892 134.704C27.3897 134.759 27.0441 134.729 26.7365 134.568C26.429 134.407 26.1215 134.247 25.9827 133.993C24.2657 131.862 23.3463 129.183 21.4224 127.275C18.0127 123.657 13.4079 121.462 9.66874 118.244C4.56885 114.345 1.63059 108.383 -0.447543 102.389C-3.96194 92.5733 -3.59202 81.8356 -6.93764 71.9272C-9.75014 63.5922 -13.499 55.551 -14.8607 46.8597C-15.8256 40.6945 -15.9303 34.4968 -15.213 28.3972Z" fill="#989265"/>
<path d="M363.772 285.07C364.888 284.175 366.274 283.586 367.637 283.381C369.095 283.182 370.524 283.463 371.839 284.026C374.247 285.621 374.424 289.007 373.033 291.235C369.885 296.922 365.525 301.955 362.936 307.966C361.03 312.283 359.592 316.822 358.059 321.355C355.795 328.35 357.145 336.147 354.31 343.01C352.824 346.775 351.428 350.642 349.66 354.293C347.891 357.944 345.445 361.649 343.292 365.276C335.789 365.005 328.357 365.125 320.896 365.724C317.328 362.611 314.066 359.228 311.014 355.568C312.758 350.759 313.937 345.722 316.341 341.146C320.393 333.297 324.836 325.376 331.387 319.225C332.106 318.498 332.922 317.777 333.636 317.146C341.687 310.124 349.197 302.489 356.059 294.428C358.662 291.311 360.809 287.78 363.772 285.07Z" fill="#DBB1B4"/>
<path d="M434.306 320.09C435.818 319.026 436.873 317.549 438.553 316.881C439.04 316.815 439.61 316.947 439.982 317.163C440.451 317.384 440.817 317.696 441.075 318.194C441.34 318.596 441.502 319.088 441.467 319.665C441.437 320.145 441.311 320.619 440.993 321.082C433.731 330.949 425.73 340.289 417.452 349.42C414.135 353.168 410.362 356.502 407.507 360.568C401.673 369.174 396.763 378.416 392.886 388.107C390.147 394.976 385.079 400.544 381.409 406.874C378.04 413.029 373.83 418.747 368.803 423.642C364.616 427.433 361.432 432.154 357.424 436.148C354.125 439.608 351.006 443.272 347.701 446.828C344.912 449.837 341.24 451.539 338.186 454.146C332.793 458.73 327.045 462.81 322.474 468.12C316.872 474.523 312.538 482.257 305.127 486.717C301.107 489.361 297.267 492.209 293.692 495.459C290.938 497.892 288.641 500.739 285.713 502.872C283.074 505.023 280.704 507.479 278.701 510.248C276.836 512.35 276.183 515.106 274.972 517.538C274.097 519.219 272.177 520.643 270.304 519.756C269.091 519.103 269.084 517.656 269.251 516.51C269.75 508.441 270.254 500.277 270.753 492.209C270.872 482.478 267.684 473.218 263.692 464.487C261.298 457.976 258.317 451.621 257.105 444.7C255.592 434.869 255.435 424.928 256.718 415.077C259.027 402.685 264.013 390.652 264.22 377.938C270.02 379.26 276.071 379.634 281.899 378.934C283.015 387.391 283.838 395.927 286.515 404.095C287.669 407.251 288.23 410.661 288.214 414.034C288.296 418.956 285.712 423.328 284.37 427.873C282.376 435.174 281.421 442.828 281.535 450.356C283.394 448.35 284.047 445.594 285.534 443.372C289.923 436.315 294.582 429.565 298.971 422.509C303.361 415.452 303.895 406.808 304.682 398.757C305.295 391.95 306.773 385.196 307.861 378.514L309.86 378.926C310.708 380.811 311.063 382.858 310.939 384.875C310.782 392.096 306.818 398.504 305.707 405.57C305.085 409.388 304.464 413.206 303.56 416.911C302.65 420.711 301.35 424.584 301.293 428.63C303.975 427.349 304.561 424.107 305.862 421.777C308.608 416.355 309.005 409.92 312.868 405.145C315.387 401.829 317.449 398.1 318.947 394.143C320.277 389.79 323.101 386.205 325.374 382.199C327.001 382.396 328.616 382.785 330.129 383.264C327.574 387.156 324.726 391.126 323.858 395.797C322.507 403.619 323.918 411.998 320.381 419.3C319.021 422.591 316.093 424.724 314.186 427.498C312.453 430.573 311.471 433.983 311.066 437.429C313.351 434.774 315.089 431.604 317.375 428.949C321.237 424.174 326.013 420.227 329.779 415.446C334.895 409.109 340.023 402.581 346.052 397.072C347.276 395.99 348.409 394.807 349.447 393.618C351.7 396.167 353.647 398.987 355.294 401.982C357.463 405.876 360.845 408.881 364.982 410.583C365.665 408.89 364.512 407.276 364.03 405.703C362.189 399.612 359.16 394.025 355.219 389.154C358.902 385.717 363.216 382.995 366.815 379.361C371.752 374.363 375.962 368.646 379.427 362.496C383.438 355.32 388.284 348.678 393.676 342.551C398.337 337.343 403.73 332.759 409.748 328.985C415.455 325.578 421.762 323.364 428.274 322.513C430.315 322.254 432.488 321.424 434.306 320.09Z" fill="#DBB1B4"/>
<path d="M86.0959 61.8694C86.431 60.4786 86.4886 58.5814 88.2007 58.3015C89.5453 58.5522 90.691 59.2411 91.6298 60.1532C92.5687 61.0652 93.1781 62.3773 93.3574 63.7056C94.203 67.8512 93.1595 72.1542 92.2386 76.2804C91.0645 80.5453 89.806 84.8564 88.1555 89.0532C86.3226 94.1181 85.3659 99.5807 83.0566 104.578C82.384 106.153 81.842 107.767 81.515 109.373C78.5727 109.01 76.6626 106.326 75.5744 103.74C73.6838 99.2895 74.4035 94.3957 75.3082 89.8395C76.3192 84.6764 78.1521 79.6114 80.7771 74.9903C82.8957 70.6467 85.2374 66.51 86.0959 61.8694Z" fill="white"/>
<path d="M279.1 333.735C279.508 333.374 279.916 333.014 280.498 332.953C280.99 332.791 281.567 332.826 282.041 332.952C282.515 333.078 282.978 333.396 283.338 333.804C283.699 334.212 283.957 334.71 284.024 335.196C284.339 339.458 282.445 343.583 282.081 347.899C281.348 355.085 281.095 362.301 281.322 369.546L281.989 369.684C276.089 371.537 270.485 374.854 264.152 374.366C263.848 369.912 263.929 365.482 264.394 361.076C264.805 355.991 266.56 350.99 269.331 346.726C272.035 341.975 275.297 337.549 279.1 333.735Z" fill="#DBB1B4"/>
<path d="M289.455 342.473C292.962 343.461 295.575 346.419 298.991 347.305C303.824 348.664 308.082 351.531 311.015 355.569C314.067 359.228 317.329 362.611 320.896 365.724C328.357 365.125 335.789 365.006 343.293 365.277C351.786 365.127 360.604 364.418 368.818 367.24C369.857 367.593 372.001 368.786 370.489 369.85C359.527 369.365 348.621 371.102 337.745 372.358C335.608 372.611 333.646 373.165 331.749 374.205C333.16 374.774 334.481 375.241 335.802 375.709C340.324 377.434 343.682 380.824 347.777 383.198C350.57 384.817 353.05 386.802 355.219 389.153C359.256 394.031 362.184 399.708 364.031 405.703C364.512 407.276 365.666 408.889 364.982 410.583C360.845 408.881 357.464 405.876 355.294 401.981C353.743 398.993 351.796 396.173 349.447 393.618C344.077 388.465 337.13 385.432 330.129 383.264C328.622 382.689 327.001 382.396 325.374 382.199C323.204 386.114 320.373 389.796 318.947 394.143C317.449 398.1 315.483 401.835 312.868 405.145C309 410.016 308.698 416.457 305.862 421.777C304.555 424.203 303.969 427.445 301.293 428.63C301.35 424.584 302.836 420.819 303.56 416.911C304.284 413.002 304.989 409.382 305.707 405.57C306.819 398.504 310.782 392.096 310.939 384.874C311.064 382.857 310.708 380.811 309.86 378.926L307.861 378.514C303.496 377.376 299 376.809 294.456 377.01C290.194 377.325 286.083 378.325 281.905 378.838C275.981 379.532 269.924 379.254 264.124 377.932C262.029 377.513 259.957 376.71 258.09 375.727C259.097 373.475 262.195 374.824 264.248 374.372C270.581 374.86 276.185 371.542 282.085 369.689C284.059 368.944 286.118 368.396 288.153 368.232C295.218 367.801 302.223 368.331 309.349 368.482C308.357 365.817 307.064 363.327 305.574 360.921C301.837 355.869 296.252 352.631 292.31 347.76C290.953 346.326 289.913 344.43 289.455 342.473Z" fill="#BD7E2D"/>
<path d="M326.963 499.816C329.281 498.235 332.455 501.424 330.759 503.74C326.76 511.203 322.881 519.045 323.001 527.714C323.23 534.93 321.39 543.038 315.087 547.359C311 550.007 306.592 552.096 302.607 554.835C299.706 557.993 299.495 562.632 297.499 566.412C294.999 571.474 289.969 574.467 285.209 577.155C280.315 579.176 275.539 581.576 270.977 584.348C266.551 587.788 261.949 591.527 259.546 596.583C259.28 596.985 258.912 597.295 258.539 597.51C258.07 597.73 257.59 597.758 257.2 597.684C256.714 597.616 256.319 597.447 255.912 597.085C255.511 596.819 255.291 596.35 255.166 595.875C254.705 591.275 254.142 586.585 255.811 582.149C258.442 572.742 265.351 565.59 272.197 559.021C277.031 554.305 283.333 551.623 288.675 547.359C296.351 541.802 301.757 533.678 304.111 524.479C305.47 519.676 307.613 515.117 310.457 510.998C314.478 505.558 320.74 502.204 326.963 499.816Z" fill="#3F5366"/>
<path d="M0.109022 181.999L0.10902 231.168C5.45111 233.566 10.03 237.382 13.4097 242.07C17.6616 247.521 22.3496 252.645 26.3834 258.205C30.8533 264.201 33.9059 271.288 39.03 276.848C44.8081 283.498 53.857 285.788 59.9622 292.002C63.778 295.818 67.0487 300.288 69.3381 305.194C60.8344 299.197 49.9322 296.472 43.1728 287.968C40.4472 284.37 37.5036 280.991 34.233 277.829C30.4172 273.904 27.6916 268.998 23.2217 265.837C17.9887 262.239 12.2105 259.513 6.21426 257.551C4.03382 256.788 1.9624 255.698 0.109019 254.389L0.109017 311.626C6.43231 310.645 12.5376 309.009 18.4248 306.72C31.0713 302.468 44.8081 302.141 57.6728 305.739C61.4885 307.047 65.1953 308.9 68.466 311.19C65.0863 311.19 61.8156 311.626 58.5449 312.389C51.6765 314.57 45.3532 318.276 38.7029 320.893C28.3458 325.036 17.1165 326.344 6.10524 324.709C4.03382 324.382 2.07142 324.055 -6.19517e-06 323.727L-7.91075e-06 362.975C4.90599 363.848 9.59395 366.137 14.609 366.246C18.7518 366.355 22.7856 365.592 26.6014 363.848C30.3082 362.103 33.6879 359.596 36.3044 356.434C40.2292 351.746 42.7367 346.077 46.0074 340.844C50.2592 333.103 57.1276 327.325 64.5412 322.746C67.5938 321.111 71.3005 318.93 74.7893 320.675C79.2592 322.964 82.7479 326.671 86.8907 329.397C89.8343 331.468 92.8869 333.321 96.0486 334.957C96.4847 335.175 97.0298 335.284 97.5749 335.284C98.12 335.284 98.6651 335.175 99.1012 334.957C99.5373 334.739 99.9734 334.412 100.3 333.976C100.628 333.539 100.846 333.103 100.955 332.558C101.827 328.634 99.3193 325.145 97.3569 321.983C94.6313 317.731 92.4509 313.152 91.1426 308.246C90.2704 305.085 90.7065 301.487 89.2892 298.434C88.09 295.491 86.3456 292.874 84.8193 290.149C83.402 289.822 82.0937 289.494 80.7855 289.058C81.2216 287.641 81.9847 286.442 82.9659 285.461C81.9847 279.028 78.7141 273.25 73.59 269.107C70.7554 268.562 67.5938 269.216 65.0863 267.472C64.6502 266.6 64.1051 264.855 65.4133 264.31C66.3945 263.983 67.4848 263.765 68.466 263.656C67.9209 261.585 66.7216 259.186 68.1389 257.115C70.2103 253.408 72.7178 249.592 72.6088 245.122C72.3908 239.78 70.1013 234.765 66.2855 231.059C59.1991 224.19 48.842 221.901 42.0826 214.705C36.4134 208.6 35.6503 199.66 30.6353 193.119C27.4736 188.322 22.1315 185.705 16.6804 184.179C11.2293 182.98 5.66916 182.217 0.109022 181.999Z" fill="#935352"/>
<path d="M0.109131 377.257L0.109129 412.035C6.75949 411.926 13.4098 411.272 19.9512 409.964C26.8196 408.983 34.3421 409.855 40.1203 413.78C43.8271 416.178 46.3346 419.885 49.7143 422.611C54.2932 426.426 60.1804 427.844 65.5225 430.024C69.2292 429.152 72.936 428.716 76.6427 428.716C79.8044 428.825 82.966 428.607 86.0187 427.953C86.4548 427.408 86.7818 426.862 86.8908 426.099C86.9999 425.445 86.7818 424.682 86.4547 424.137C85.0375 421.738 83.0751 419.776 81.4397 417.596C77.6239 412.581 72.4999 408.656 68.6841 403.532C66.1766 400.37 63.342 397.644 60.1804 395.137C56.3646 391.321 51.7857 388.269 46.7707 386.306C37.5038 383.472 28.2369 379.765 18.4249 379.547C12.3196 378.675 6.3234 376.821 0.109131 377.257Z" fill="#BD7E2C"/>
<path d="M0.109131 412.036L0.10913 429.261C3.70686 430.679 7.52264 431.769 10.4662 434.385C12.6467 436.348 14.391 438.855 15.4813 441.69C16.8986 444.851 18.97 447.577 20.0602 450.957C21.4775 454.881 23.0038 458.588 24.8572 462.295C25.9474 464.803 27.8008 466.983 30.1993 468.4C35.9774 472.325 43.1729 472.543 49.3872 475.269C52.5488 476.577 55.4924 478.212 58.327 480.175C62.0338 482.682 64.1052 486.716 66.8307 490.096C69.5563 493.475 70.9736 497.509 74.4623 500.126C77.1879 502.415 80.2405 504.16 83.6202 505.468C89.1803 507.43 95.1765 507.975 100.192 511.246C107.387 515.716 112.293 523.02 116.327 530.434C118.507 534.25 119.27 538.829 121.887 542.426C123.849 545.261 126.03 547.986 128.428 550.385C132.244 553.656 137.15 555.509 141.402 558.017C146.09 560.633 150.887 562.922 155.793 564.994L188.063 564.994C187.627 564.231 187.191 563.359 186.864 562.595C184.902 558.235 184.684 553.547 183.812 548.968C182.176 543.19 178.251 538.502 174.545 534.032C171.383 529.889 167.24 526.182 165.387 521.167C163.424 513.972 165.932 505.795 161.898 499.145C157.101 491.513 154.267 482.246 146.417 477.122C138.567 471.998 129.519 466.983 124.394 458.588C122.759 456.081 120.797 454.009 119.052 451.611C115.128 446.051 108.368 443.216 102.045 441.254C89.5074 438.419 77.2969 434.712 65.5225 429.915C60.0714 427.735 54.1842 426.318 49.7143 422.502C46.3346 419.776 43.718 416.07 40.1203 413.671C34.2331 409.637 26.8196 408.874 19.9512 409.855C13.4098 411.164 6.75949 411.927 0.109131 412.036Z" fill="#1D4B44"/>
<path d="M0.109131 501.761L0.10913 517.133C3.81589 519.968 7.74069 522.475 11.8835 524.656C18.4249 527.599 25.5113 528.798 32.1617 531.197C37.0677 532.941 41.1015 536.43 45.1353 539.701C50.0413 543.734 53.0939 549.513 57.5639 553.874C60.9435 557.253 63.9962 560.851 66.7217 564.776L126.793 564.776C124.831 562.813 122.977 560.742 121.015 558.78C115.128 552.783 107.387 549.077 99.8645 545.261C92.9961 541.772 85.2555 539.592 79.2593 534.686C70.1014 527.272 62.1428 518.441 52.8759 511.137C44.6992 504.923 35.3233 500.562 25.2933 498.163C16.8986 496.855 8.2858 499.253 0.109131 501.761Z" fill="#1D4B44"/>
<path d="M99.3194 362.321C97.0299 366.137 96.4848 370.607 95.7216 374.968C94.4133 383.363 98.2291 391.43 101.936 398.735C103.353 401.569 105.207 404.077 107.387 406.366C109.676 409.201 111.203 412.581 111.639 416.287C112.62 425.227 118.943 432.423 125.485 438.092C135.842 446.377 145.436 455.535 154.049 465.565C156.992 468.836 159.173 472.652 160.59 476.686C161.68 479.847 161.571 483.336 162.225 486.716C162.988 489.55 164.406 492.058 166.368 494.238C169.421 497.945 173.018 501.107 175.526 505.14C178.033 509.174 180.541 512.772 181.849 517.242C184.575 525.091 182.83 533.595 185.12 541.554C186.537 547.877 188.609 554.091 191.552 559.979C192.206 561.614 192.86 563.249 193.624 564.885L230.037 564.885C230.691 562.704 231.454 560.524 232.436 558.343C236.905 549.84 237.996 540.246 241.375 531.415C243.556 523.565 244.428 514.843 241.157 507.103C238.977 501.87 237.342 496.31 234.507 491.404C233.308 489.114 232.654 486.498 232.654 483.881C232.108 473.088 231.563 461.532 225.676 452.156C223.932 448.994 221.533 446.159 218.59 443.979C216.082 442.126 213.03 441.362 210.522 439.727C208.778 438.31 207.36 436.456 206.597 434.385C202.89 427.408 201.146 419.558 196.894 412.908C193.842 408.983 189.699 406.257 185.556 403.532C180.105 400.697 174.109 399.062 169.094 395.355C165.387 392.739 161.244 390.231 159.173 385.979C156.447 381.618 150.887 381.182 146.417 379.547C143.364 378.566 140.639 376.93 138.458 374.75C135.624 370.062 133.77 364.72 133.007 359.269C131.481 354.363 132.789 349.13 131.263 344.224C130.064 340.299 128.537 336.483 126.684 332.776C124.067 327.652 121.342 322.528 117.417 318.276C117.199 318.058 116.872 317.84 116.436 317.731C116.109 317.622 115.673 317.622 115.346 317.731C115.019 317.84 114.691 318.058 114.473 318.276C114.255 318.603 114.037 318.93 114.037 319.258C112.947 324.709 113.383 330.378 111.966 335.72C110.658 341.498 108.368 346.949 105.207 351.964C103.026 355.235 101.391 358.942 99.3194 362.321Z" fill="#1D4B44"/>
<path d="M324.59 432.302C322.663 431.788 319.323 431.531 320.094 434.486C323.434 439.368 328.573 442.451 332.555 446.69C334.482 448.746 334.097 451.829 334.868 454.27C335.51 457.996 338.465 460.822 341.034 463.52C346.43 468.658 350.027 475.467 350.926 482.79C351.569 487.03 354.523 490.37 356.322 494.224C358.12 498.078 359.277 502.446 362.36 505.529C364.929 508.098 367.499 510.668 370.196 513.109C376.491 518.247 381.63 524.542 387.154 530.323C391.908 535.462 395.119 542.143 400.901 546.254C408.223 551.264 416.188 555.375 423.896 560L488.516 560C487.488 554.219 487.874 547.667 484.02 542.785C480.808 538.545 477.339 534.434 473.485 530.709C470.402 527.883 467.961 524.542 466.163 520.817C464.107 516.449 463.85 511.567 461.795 507.199C459.739 502.06 456.142 497.949 452.545 493.838C450.361 491.397 447.792 488.443 444.194 488.828C444.451 493.838 447.149 498.206 447.792 503.217C448.691 511.695 453.444 519.147 458.198 526.084C461.795 531.48 465.777 536.747 467.319 543.042C463.336 539.188 461.281 533.664 456.913 530.066C452.673 526.855 448.691 523.258 444.965 519.404C440.34 514.008 435.202 508.484 433.018 501.418C429.549 491.911 421.712 485.231 414.904 478.165C412.463 475.724 409.636 473.669 406.81 471.87C402.828 469.301 399.487 465.832 395.376 463.391C391.908 461.207 387.668 460.822 384.456 458.124C383.043 456.968 381.116 456.454 379.318 456.582C379.318 457.739 379.446 459.023 379.703 460.18C384.457 469.044 394.734 473.026 400.001 481.377C402.185 484.846 403.084 488.957 405.268 492.297C409.636 499.491 413.105 507.456 419.785 512.98C428.007 519.789 434.045 528.91 438.542 538.417C439.056 540.087 439.441 541.757 439.313 543.556C436.743 543.427 434.174 542.785 431.733 541.629C426.851 539.573 421.584 538.417 416.959 535.462C414.133 533.664 411.306 532.122 408.352 530.58C405.011 528.653 401.928 526.084 399.359 523.258C396.404 520.431 393.835 517.22 391.651 513.751C388.696 508.741 387.283 502.831 383.686 498.335C381.373 495.765 378.804 493.581 375.849 491.783C371.995 488.957 368.783 485.616 366.085 481.762C362.745 477.009 363.516 470.842 361.461 465.575C359.534 458.895 352.853 454.398 352.211 447.204C352.082 441.552 346.815 438.34 342.704 435.514C340.392 438.34 341.676 442.065 341.676 445.406C339.492 443.479 337.565 441.295 336.024 438.725C333.454 434.871 328.701 433.458 324.59 432.302Z" fill="#989265"/>
</svg>
