<svg width="234" height="234" viewBox="0 0 234 234" fill="none" xmlns="http://www.w3.org/2000/svg">
<path d="M195.504 146.372L197.027 141.888L188.103 138.857L188.808 136.782L199.565 140.435L197.337 146.995L195.504 146.372Z" fill="white"/>
<path d="M190.729 153.057C189.488 152.277 188.474 151.567 187.689 150.929C186.903 150.29 186.317 149.672 185.931 149.074C185.555 148.481 185.369 147.891 185.375 147.304C185.38 146.717 185.558 146.088 185.908 145.417L187.726 146.221C187.587 146.557 187.522 146.878 187.531 147.183C187.535 147.498 187.687 147.842 187.986 148.215C188.28 148.597 188.754 149.036 189.409 149.534C190.073 150.037 190.978 150.654 192.125 151.384L194.836 153.106L191.654 159.205L181.582 153.952L182.596 152.008L190.952 156.367L192.195 153.983L190.729 153.057Z" fill="white"/>
<path d="M173.871 164.775C174.311 164.239 174.808 163.819 175.362 163.515C175.924 163.218 176.512 163.032 177.126 162.956C177.74 162.881 178.365 162.919 179.001 163.069C179.639 163.234 180.261 163.51 180.867 163.898L181.954 162.576L178.271 159.548L179.663 157.855L188.438 165.069L187.046 166.762L183.45 163.805L182.352 165.14C182.844 165.668 183.217 166.23 183.472 166.827C183.736 167.43 183.886 168.037 183.923 168.647C183.953 169.266 183.871 169.869 183.679 170.456C183.479 171.051 183.166 171.608 182.739 172.128C182.238 172.737 181.669 173.195 181.032 173.499C180.396 173.819 179.731 173.99 179.036 174.012C178.341 174.035 177.643 173.917 176.944 173.66C176.237 173.41 175.567 173.025 174.932 172.503C174.257 171.948 173.732 171.344 173.357 170.691C172.983 170.038 172.751 169.371 172.662 168.69C172.581 168.016 172.64 167.339 172.839 166.66C173.039 165.997 173.383 165.368 173.871 164.775ZM180.18 166.171C179.257 165.412 178.373 165.017 177.529 164.986C176.678 164.963 175.954 165.314 175.358 166.039C175.047 166.418 174.842 166.81 174.745 167.213C174.642 167.625 174.636 168.035 174.729 168.442C174.83 168.857 175.021 169.263 175.303 169.66C175.577 170.065 175.933 170.447 176.369 170.806C177.292 171.564 178.182 171.944 179.038 171.943C179.903 171.95 180.636 171.586 181.239 170.853C181.544 170.482 181.742 170.099 181.832 169.704C181.922 169.309 181.921 168.907 181.828 168.499C181.728 168.1 181.538 167.702 181.257 167.305C180.984 166.915 180.625 166.537 180.18 166.171Z" fill="white"/>
<path d="M167.471 183.985L170.27 181.671L164.263 174.409L165.952 173.012L171.959 180.273L174.758 177.959L175.992 179.45L168.705 185.477L167.471 183.985Z" fill="white"/>
<path d="M153.609 184.063L152.605 182.408L159.348 178.316L165.242 188.028L158.621 192.045L157.617 190.39L162.35 187.518L160.93 185.179L156.84 187.66L155.911 186.128L160.001 183.647L158.465 181.116L153.609 184.063Z" fill="white"/>
<path d="M145.26 198.133L140.99 187.606L143.021 186.782L144.843 191.274L149.617 189.338L147.795 184.845L149.841 184.015L154.111 194.542L152.065 195.372L150.339 191.117L145.565 193.053L147.291 197.309L145.26 198.133Z" fill="white"/>
<path d="M137.08 200.517L135.175 200.943L128.479 190.8L130.696 190.304L132.345 192.837L136.217 191.971L136.614 188.98L138.831 188.484L137.08 200.517ZM133.074 194.264L135.579 198.278L136.197 193.566L133.074 194.264Z" fill="white"/>
<path d="M116.913 197.244C116.909 197.009 116.954 196.79 117.047 196.586C117.13 196.382 117.245 196.199 117.392 196.037C117.539 195.885 117.713 195.765 117.915 195.677C118.116 195.589 118.334 195.543 118.569 195.54C118.793 195.537 119.007 195.576 119.21 195.659C119.414 195.741 119.597 195.856 119.759 196.003C119.911 196.161 120.031 196.341 120.119 196.542C120.207 196.743 120.253 196.961 120.256 197.196C120.26 197.42 120.22 197.634 120.137 197.838C120.055 198.042 119.94 198.219 119.793 198.371C119.635 198.533 119.456 198.658 119.254 198.747C119.053 198.835 118.84 198.88 118.616 198.884C118.382 198.887 118.162 198.847 117.958 198.765C117.755 198.682 117.577 198.562 117.425 198.404C117.274 198.257 117.154 198.083 117.066 197.882C116.967 197.68 116.916 197.468 116.913 197.244Z" fill="white"/>
<path d="M98.4102 189.47L96.8589 196.828L100.879 191.953L102.053 192.2L103.763 198.284L105.314 190.926L107.475 191.381L105.132 202.497L102.814 202.008L100.86 194.99L96.2077 200.615L93.9062 200.13L96.2497 189.015L98.4102 189.47Z" fill="white"/>
<path d="M88.2647 186.06C89.0309 186.384 89.6659 186.827 90.1698 187.387C90.6597 187.954 91.0267 188.578 91.2706 189.261C91.5005 189.949 91.6031 190.664 91.5784 191.407C91.5537 192.149 91.3999 192.854 91.1171 193.522C90.8219 194.22 90.4114 194.833 89.8857 195.364C89.3502 195.89 88.7526 196.303 88.0928 196.603C87.4232 196.899 86.7138 197.056 85.9645 197.074C85.2111 197.103 84.4661 196.961 83.7294 196.649C82.973 196.329 82.352 195.881 81.8662 195.305C81.3665 194.734 81.0016 194.105 80.7717 193.417C80.5418 192.728 80.4392 192.013 80.4639 191.271C80.4886 190.528 80.6403 189.828 80.9189 189.17C81.2142 188.473 81.6247 187.859 82.1503 187.328C82.6719 186.808 83.2625 186.398 83.9223 186.098C84.5779 185.808 85.2824 185.648 86.0358 185.62C86.7851 185.601 87.528 185.748 88.2647 186.06ZM89.0544 192.649C89.2457 192.197 89.3619 191.731 89.4032 191.25C89.4445 190.77 89.4061 190.313 89.288 189.881C89.16 189.444 88.9509 189.049 88.6608 188.695C88.3609 188.336 87.9703 188.055 87.489 187.851C86.9979 187.643 86.5241 187.558 86.0677 187.597C85.5972 187.641 85.1636 187.776 84.7669 188.002C84.3603 188.223 84.0058 188.513 83.7034 188.872C83.3871 189.236 83.1375 189.634 82.9545 190.066C82.7632 190.518 82.6518 190.987 82.6203 191.471C82.579 191.952 82.6224 192.41 82.7504 192.847C82.8685 193.279 83.0796 193.67 83.3837 194.018C83.6738 194.373 84.0546 194.65 84.5261 194.85C85.0172 195.058 85.498 195.139 85.9684 195.095C86.4347 195.061 86.8662 194.931 87.263 194.705C87.6556 194.489 88.01 194.199 88.3264 193.835C88.6287 193.476 88.8714 193.081 89.0544 192.649Z" fill="white"/>
<path d="M72.678 186.845C73.5806 185.69 74.3897 184.754 75.1051 184.038C75.8205 183.321 76.4955 182.802 77.13 182.479C77.7586 182.165 78.3645 182.041 78.9476 182.106C79.5307 182.172 80.1384 182.413 80.7705 182.83L79.7849 184.556C79.4645 184.383 79.1519 184.286 78.8471 184.264C78.5334 184.235 78.176 184.351 77.7749 184.61C77.3649 184.864 76.8788 185.291 76.3167 185.891C75.7486 186.5 75.0427 187.338 74.1988 188.404L72.2096 190.926L66.4667 187.137L72.7222 177.654L74.5519 178.862L69.3625 186.728L71.6062 188.208L72.678 186.845Z" fill="white"/>
<path d="M65.74 171.816C66.3418 172.39 66.7791 173.029 67.0519 173.732C67.3096 174.435 67.4318 175.149 67.4184 175.873C67.39 176.598 67.2328 177.304 66.947 177.989C66.6611 178.675 66.2677 179.28 65.7669 179.805C65.2439 180.352 64.6428 180.781 63.9634 181.091C63.2763 181.394 62.5712 181.569 61.848 181.616C61.1171 181.655 60.398 181.551 59.6906 181.304C58.9759 181.064 58.3292 180.668 57.7505 180.115C57.1564 179.548 56.7342 178.909 56.4838 178.198C56.2184 177.487 56.0999 176.77 56.1283 176.045C56.1568 175.32 56.3139 174.615 56.5998 173.929C56.8857 173.243 57.2753 172.642 57.7688 172.125C58.2918 171.577 58.8929 171.148 59.5723 170.838C60.2443 170.536 60.9419 170.361 61.6651 170.315C62.3809 170.275 63.0962 170.376 63.8109 170.616C64.5183 170.863 65.1613 171.263 65.74 171.816ZM64.1466 178.258C64.4855 177.903 64.7592 177.508 64.9679 177.073C65.1766 176.638 65.3022 176.198 65.3447 175.752C65.3794 175.298 65.3238 174.854 65.178 174.42C65.0244 173.979 64.7586 173.577 64.3805 173.217C63.9947 172.848 63.5816 172.601 63.1411 172.476C62.6855 172.351 62.2322 172.323 61.7812 172.394C61.3225 172.458 60.8883 172.603 60.4786 172.832C60.0539 173.06 59.6795 173.344 59.3554 173.684C59.0166 174.039 58.7467 174.437 58.5457 174.88C58.337 175.315 58.2153 175.759 58.1805 176.212C58.1381 176.658 58.1973 177.098 58.3583 177.532C58.5041 177.966 58.7622 178.36 59.1326 178.714C59.5183 179.082 59.939 179.329 60.3946 179.454C60.8428 179.587 61.2924 179.618 61.7435 179.547C62.1871 179.484 62.6213 179.338 63.046 179.11C63.4557 178.881 63.8226 178.597 64.1466 178.258Z" fill="white"/>
<path d="M52.543 167.604L52.0105 166.883L46.1992 166.88L44.7159 164.873L51.5544 164.893L53.6339 157.826L55.0981 159.808L53.4826 165.537L54.1387 166.425L57.922 163.63L59.2246 165.393L50.088 172.143L48.7854 170.38L52.543 167.604Z" fill="white"/>
<path d="M40.6156 157.999L39.7205 156.264L47.8349 147.216L48.8767 149.235L46.8442 151.472L48.6637 154.998L51.6573 154.624L52.6991 156.643L40.6156 157.999ZM45.6484 152.539L42.4004 155.979L47.1157 155.383L45.6484 152.539Z" fill="white"/>
<path d="M38.6574 137.79C38.8832 137.726 39.1067 137.713 39.3278 137.75C39.546 137.777 39.7525 137.84 39.947 137.941C40.1314 138.044 40.2921 138.181 40.4294 138.353C40.5666 138.525 40.6672 138.724 40.731 138.949C40.7919 139.165 40.8089 139.382 40.7819 139.6C40.7549 139.818 40.6913 140.025 40.5911 140.219C40.4778 140.407 40.3352 140.569 40.1634 140.706C39.9916 140.843 39.7927 140.944 39.5669 141.008C39.3514 141.069 39.1345 141.085 38.9162 141.058C38.698 141.032 38.4967 140.966 38.3124 140.863C38.1149 140.753 37.9476 140.612 37.8103 140.44C37.6731 140.268 37.574 140.074 37.5131 139.859C37.4492 139.633 37.4308 139.411 37.4578 139.193C37.4848 138.975 37.555 138.772 37.6683 138.585C37.7714 138.4 37.9089 138.24 38.0807 138.102C38.2496 137.955 38.4418 137.851 38.6574 137.79Z" fill="white"/>
<path d="M36.2849 128.247C35.5933 128.296 34.9036 128.222 34.216 128.025C33.5169 127.818 32.8844 127.494 32.3184 127.053C31.7524 126.612 31.2799 126.057 30.901 125.389C30.5221 124.721 30.3013 123.945 30.2386 123.062C30.1646 122.019 30.3295 121.104 30.7334 120.316C31.1366 119.518 31.692 118.906 32.3997 118.482L33.6849 120.091C33.3763 120.262 33.1231 120.462 32.9254 120.69C32.7171 120.919 32.5577 121.16 32.4474 121.414C32.3371 121.667 32.2648 121.929 32.2305 122.199C32.1855 122.469 32.1721 122.732 32.1902 122.988C32.2295 123.541 32.3756 124.017 32.6285 124.416C32.8806 124.805 33.1974 125.124 33.5788 125.375C33.9488 125.617 34.3674 125.79 34.8348 125.896C35.2915 126.002 35.7432 126.04 36.1901 126.008C36.6902 125.973 37.1686 125.859 37.6255 125.666C38.0717 125.474 38.4601 125.221 38.7908 124.909C39.1208 124.586 39.3779 124.215 39.562 123.796C39.7453 123.366 39.8196 122.906 39.7849 122.417C39.7667 122.161 39.7159 121.898 39.6325 121.625C39.549 121.353 39.4294 121.1 39.2737 120.865C39.1173 120.619 38.9251 120.398 38.6972 120.2C38.4587 120.003 38.1806 119.852 37.863 119.746L38.7724 117.869C39.2108 118.02 39.607 118.253 39.961 118.571C40.3036 118.878 40.6017 119.236 40.8554 119.646C41.1083 120.045 41.3102 120.48 41.4613 120.95C41.6123 121.421 41.704 121.885 41.7365 122.342C41.7939 123.151 41.6761 123.902 41.3832 124.597C41.0903 125.291 40.6899 125.903 40.182 126.431C39.6628 126.949 39.0671 127.371 38.3952 127.696C37.7118 128.012 37.0084 128.196 36.2849 128.247Z" fill="white"/>
<path d="M30.2413 110.797L30.4215 108.853L42.1318 105.601L41.922 107.863L39.0046 108.653L38.6383 112.604L41.3622 113.901L41.1524 116.163L30.2413 110.797ZM37.4223 108.908L32.8326 110.057L37.1269 112.094L37.4223 108.908Z" fill="white"/>
<path d="M31.7429 99.2723L36.5366 97.5744L33.1414 93.8002L33.7317 91.4904L38.31 96.8386L44.7063 94.4273L44.1159 96.7371L39.5129 98.3351L42.7808 101.961L42.1865 104.286L37.7316 99.1019L31.1486 101.598L31.7429 99.2723Z" fill="white"/>
<path d="M36.6285 83.5558L37.417 81.7702L49.5539 82.407L48.6362 84.4854L45.619 84.3075L44.0161 87.9374L46.1867 90.0327L45.2689 92.1111L36.6285 83.5558ZM44.0376 84.0465L39.3207 83.6777L42.745 86.9738L44.0376 84.0465Z" fill="white"/>
<path d="M50.6032 80.3373L41.0274 74.2256L43.6184 70.166C43.8996 69.7254 44.2523 69.381 44.6764 69.1329C45.0972 68.87 45.5466 68.7013 46.0244 68.6267C46.4933 68.5463 46.9699 68.5531 47.454 68.647C47.9292 68.7352 48.3602 68.9026 48.7468 69.1494C49.1514 69.4076 49.5011 69.7321 49.7959 70.1227C50.0817 70.5076 50.2898 70.9251 50.4201 71.3752C50.5504 71.8253 50.5878 72.2921 50.5323 72.7755C50.4769 73.259 50.3085 73.721 50.0274 74.1615L48.5812 76.4274L51.7911 78.4761L50.6032 80.3373ZM46.9493 75.3858L48.3266 73.2279C48.5446 72.8862 48.586 72.514 48.4508 72.1113C48.3212 71.6996 48.0182 71.3417 47.5417 71.0376C47.2989 70.8826 47.0601 70.7809 46.8254 70.7323C46.5817 70.678 46.3551 70.6662 46.1456 70.697C45.9361 70.7278 45.7483 70.8041 45.5821 70.9257C45.4126 71.0327 45.2762 71.1671 45.1729 71.3289L43.8472 73.4059L46.9493 75.3858Z" fill="white"/>
<path d="M50.3325 60.987L51.6272 59.5262L62.994 63.8282L61.487 65.5285L58.6672 64.4403L56.0353 67.4099L57.4649 70.0666L55.9579 71.7669L50.3325 60.987ZM57.2405 63.7103L52.8597 61.9228L55.1179 66.105L57.2405 63.7103Z" fill="white"/>
<path d="M68.3507 51.9375C68.4915 52.1252 68.5843 52.3289 68.6292 52.5486C68.6825 52.762 68.6975 52.9774 68.674 53.195C68.6442 53.4041 68.5738 53.6036 68.4629 53.7935C68.352 53.9833 68.2027 54.1487 68.015 54.2895C67.8358 54.4239 67.6395 54.5178 67.4262 54.5712C67.2129 54.6245 66.9974 54.6395 66.7798 54.6161C66.5643 54.5777 66.3617 54.503 66.1718 54.3921C65.9819 54.2812 65.8165 54.1319 65.6757 53.9442C65.5413 53.765 65.4474 53.5688 65.394 53.3554C65.3407 53.1421 65.3289 52.9309 65.3588 52.7218C65.3907 52.4978 65.4622 52.2909 65.5731 52.101C65.684 51.9111 65.8291 51.749 66.0082 51.6146C66.196 51.4737 66.3965 51.3766 66.6098 51.3233C66.8231 51.2699 67.0375 51.2624 67.253 51.3008C67.4621 51.3306 67.6615 51.401 67.8514 51.5119C68.0498 51.6164 68.2163 51.7583 68.3507 51.9375Z" fill="white"/>
<path d="M84.976 48.5386L83.1836 44.7313L81.5478 45.5014L81.024 50.399L78.8236 51.4349L79.4343 46.1958C78.732 46.2317 78.0774 46.0683 77.4704 45.7056C76.8635 45.3429 76.3964 44.8141 76.0693 44.1193C75.8649 43.685 75.7538 43.2362 75.7361 42.7729C75.7185 42.3097 75.784 41.8603 75.9327 41.4248C76.0813 40.9894 76.3126 40.5916 76.6265 40.2317C76.9501 39.8671 77.3483 39.5735 77.8212 39.3509L82.1206 37.3269L86.9592 47.6049L84.976 48.5386ZM80.9415 39.9687L78.8425 40.9569C78.6495 41.0477 78.4843 41.1727 78.3469 41.3317C78.205 41.481 78.0935 41.6573 78.0123 41.8605C77.9363 42.0496 77.9003 42.2611 77.9043 42.495C77.9134 42.7147 77.9725 42.9404 78.0815 43.172C78.2996 43.6352 78.6096 43.9432 79.0116 44.0958C79.4232 44.2439 79.8317 44.2226 80.237 44.0318L82.3795 43.0232L80.9415 39.9687Z" fill="white"/>
<path d="M91.6221 42.1311L95.0964 32.9134L96.7164 32.4684L99.7257 43.4226L97.612 44.0032L95.5479 36.4896L92.1041 45.5163L90.4069 45.9826L87.3976 35.0284L89.5113 34.4477L91.6221 42.1311Z" fill="white"/>
<path d="M112.641 41.6495L104.241 42.3729L103.266 31.0548L105.45 30.8667L106.258 40.256L110.674 39.8757L109.866 30.4865L112.049 30.2984L112.858 39.6877L114.548 39.5421L114.957 44.2926L112.884 44.471L112.641 41.6495Z" fill="white"/>
<path d="M126.601 36.6533C126.573 36.8862 126.498 37.0973 126.378 37.2866C126.268 37.4773 126.13 37.6428 125.962 37.7833C125.795 37.9131 125.606 38.008 125.395 38.0678C125.183 38.1276 124.961 38.143 124.728 38.1142C124.506 38.0867 124.299 38.0182 124.108 37.9086C123.918 37.799 123.752 37.6603 123.612 37.4925C123.483 37.3153 123.389 37.121 123.329 36.9093C123.269 36.6977 123.254 36.4755 123.283 36.2426C123.31 36.0203 123.379 35.8138 123.488 35.6232C123.598 35.4325 123.736 35.2722 123.903 35.1424C124.081 35.0032 124.276 34.9038 124.488 34.844C124.699 34.7842 124.916 34.768 125.139 34.7955C125.371 34.8244 125.583 34.8936 125.774 35.0031C125.965 35.1127 126.124 35.2561 126.253 35.4332C126.383 35.5997 126.477 35.7888 126.537 36.0004C126.608 36.2134 126.629 36.431 126.601 36.6533Z" fill="white"/>
<path d="M139.31 33.1339L148.15 36.212L144.414 46.9402L142.344 46.2193L145.443 37.3195L140.744 35.6831L137.645 44.5829L135.575 43.8621L139.31 33.1339Z" fill="white"/>
<path d="M154.595 43.192C153.782 44.4121 153.046 45.4065 152.387 46.175C151.728 46.9435 151.094 47.5126 150.486 47.8822C149.883 48.2425 149.288 48.4122 148.702 48.3913C148.115 48.3704 147.491 48.1759 146.829 47.8079L147.682 46.0117C148.014 46.16 148.333 46.2336 148.639 46.2327C148.954 46.237 149.301 46.0946 149.682 45.8057C150.071 45.522 150.524 45.0595 151.039 44.4184C151.559 43.768 152.2 42.8793 152.961 41.7523L154.753 39.0878L160.766 42.4311L155.246 52.3596L153.33 51.2944L157.91 43.0579L155.561 41.7517L154.595 43.192Z" fill="white"/>
<path d="M168.807 47.8845L170.329 49.1071L166.581 60.6685L164.81 59.2455L165.76 56.3764L162.667 53.891L160.083 55.4472L158.312 54.0242L168.807 47.8845ZM166.421 54.916L167.995 50.454L163.926 52.9117L166.421 54.916Z" fill="white"/>
<path d="M172.13 57.7765C172.645 57.3115 173.233 56.9447 173.896 56.6761C174.574 56.4082 175.272 56.2735 175.99 56.2719C176.707 56.2704 177.421 56.4159 178.131 56.7085C178.842 57.0011 179.494 57.4758 180.087 58.1325C180.788 58.908 181.223 59.7304 181.39 60.5998C181.565 61.4771 181.504 62.301 181.209 63.0715L179.205 62.5966C179.342 62.2712 179.419 61.9579 179.434 61.6566C179.457 61.3481 179.434 61.06 179.364 60.7921C179.294 60.5243 179.19 60.2736 179.051 60.04C178.919 59.7993 178.768 59.5839 178.596 59.394C178.224 58.9826 177.816 58.6976 177.371 58.5392C176.933 58.3888 176.486 58.3323 176.031 58.3697C175.591 58.408 175.155 58.5294 174.721 58.7341C174.296 58.9317 173.917 59.1807 173.585 59.4811C173.213 59.8173 172.907 60.2021 172.666 60.6355C172.433 61.0618 172.282 61.4998 172.214 61.9494C172.153 62.4071 172.18 62.8577 172.293 63.3015C172.414 63.7531 172.639 64.161 172.968 64.525C173.14 64.7149 173.342 64.8912 173.576 65.054C173.809 65.2169 174.06 65.3428 174.327 65.4318C174.601 65.5287 174.889 65.5848 175.191 65.6C175.5 65.608 175.812 65.5558 176.127 65.4433L176.568 67.482C176.13 67.6336 175.674 67.6936 175.2 67.6621C174.741 67.6314 174.285 67.5329 173.833 67.3666C173.388 67.2082 172.961 66.9903 172.552 66.7129C172.143 66.4355 171.785 66.1267 171.477 65.7865C170.933 65.1851 170.563 64.5207 170.365 63.7933C170.168 63.0659 170.107 62.3378 170.181 61.609C170.271 60.881 170.48 60.1816 170.808 59.5109C171.151 58.841 171.592 58.2629 172.13 57.7765Z" fill="white"/>
<path d="M189.139 73.537L187.155 70.4952L179.262 75.6449L178.064 73.8091L185.957 68.6594L183.972 65.6176L185.593 64.5597L190.761 72.4791L189.139 73.537Z" fill="white"/>
<path d="M186.532 81.2573L196.158 83.3498L196.835 84.8875L186.437 89.4626L185.554 87.4563L192.686 84.3181L183.254 82.228L182.545 80.617L192.943 76.0419L193.826 78.0483L186.532 81.2573Z" fill="white"/>
<path d="M195.016 94.0023L195.231 94.8722L200.595 97.1062L201.194 99.5293L194.888 96.8853L190.254 102.612L189.663 100.22L193.354 95.5501L193.09 94.4784L188.523 95.607L187.997 93.479L199.025 90.7534L199.551 92.8814L195.016 94.0023Z" fill="white"/>
<path d="M202.398 107.778L202.551 109.724L191.564 114.92L191.386 112.655L194.127 111.381L193.816 107.425L190.912 106.61L190.734 104.345L202.398 107.778ZM195.643 110.861L199.97 108.948L195.392 107.67L195.643 110.861Z" fill="white"/>
<path d="M196.391 126.953C196.158 126.924 195.947 126.85 195.758 126.73C195.567 126.62 195.402 126.481 195.261 126.313C195.131 126.147 195.036 125.958 194.977 125.746C194.917 125.535 194.901 125.312 194.93 125.079C194.958 124.857 195.026 124.651 195.136 124.46C195.245 124.269 195.384 124.104 195.552 123.963C195.729 123.835 195.923 123.741 196.135 123.681C196.347 123.621 196.569 123.606 196.802 123.634C197.024 123.662 197.231 123.73 197.421 123.84C197.612 123.95 197.772 124.088 197.902 124.254C198.041 124.433 198.141 124.628 198.2 124.839C198.26 125.051 198.276 125.268 198.249 125.49C198.22 125.723 198.151 125.935 198.041 126.125C197.932 126.316 197.788 126.476 197.611 126.604C197.445 126.734 197.256 126.829 197.044 126.889C196.831 126.959 196.613 126.981 196.391 126.953Z" fill="white"/>
</svg>
