<svg width="324" height="409" viewBox="0 0 324 409" fill="none" xmlns="http://www.w3.org/2000/svg">
<path d="M145.981 28.064C132.778 29.2348 119.981 32.552 107.997 37.9181C100.177 41.4304 91.95 44.0647 83.5203 45.8209C74.989 47.9673 66.0515 49.1381 58.2311 53.3334C51.9343 56.7482 45.942 60.5533 40.153 64.651C34.6686 68.3585 29.5904 72.749 25.1217 77.5297C25.2232 77.8224 25.5279 78.5053 25.6295 78.798C28.4732 82.7006 31.8248 86.1154 34.9733 89.7253C35.278 90.018 35.6842 90.3107 36.0904 90.3107C36.4967 90.4083 37.0045 90.4083 37.4108 90.2132C51.2233 85.53 63.3093 77.3345 76.3093 71.0903C86.6687 65.7242 98.8563 64.7486 110.536 64.651C119.981 64.651 129.122 62.3094 138.364 60.846C139.685 62.6997 141.106 64.4559 142.63 66.1145C142.833 65.8218 143.138 65.2364 143.239 64.9437C142.731 58.2117 145.677 51.7724 146.286 45.1379C146.489 42.1134 144.153 39.7718 143.95 36.9424C143.645 33.9179 144.864 30.9909 145.981 28.064Z" fill="#405466"/>
<path d="M193.818 47.1866L193.005 46.7964C190.974 49.6258 188.638 52.5527 185.286 54.0162C183.357 54.6992 181.325 54.8943 179.396 54.6016C177.364 54.3089 175.536 53.5284 173.911 52.3576C172.286 50.699 170.763 48.9428 169.646 46.9915C169.239 48.6501 168.732 50.2112 168.021 51.7722C166.294 55.187 167.614 59.0896 168.528 62.5044C169.849 66.5046 169.036 70.6999 168.528 74.7977C168.528 75.3831 168.325 75.9685 168.021 76.4563C167.716 76.9441 167.31 77.4319 166.802 77.7246C166.903 75.6758 166.599 73.6269 165.888 71.6756C165.482 73.1391 165.278 74.6025 164.974 76.066C163.552 76.1636 162.13 76.2611 160.708 76.1636C160.099 75.5782 159.489 74.8952 158.982 74.2123C157.661 73.822 156.442 73.139 155.427 72.261C154.411 72.1634 153.396 71.9683 152.482 71.578C151.263 70.017 150.349 68.2608 149.739 66.407C149.333 67.2851 148.622 67.9681 147.81 68.4559C146.896 68.9437 145.982 69.0413 144.966 68.8462C150.958 74.7977 157.458 80.0662 164.567 84.6518C175.13 91.6765 186.911 96.6523 198.489 101.921C194.63 103.775 190.669 105.141 186.708 106.702C172.896 112.458 160.2 120.361 147.81 128.459C138.872 134.117 130.747 140.947 123.841 148.752C122.724 150.021 121.505 151.387 120.388 152.655C117.239 156.85 114.396 161.241 111.755 165.826C109.927 168.656 109.317 172.558 111.552 175.388C115.919 180.851 121.911 184.559 127.294 188.949C130.036 191.193 132.677 193.34 135.622 195.291C142.732 200.657 149.536 206.413 155.935 212.56C158.067 208.072 163.146 206.316 167.513 204.56C164.568 198.706 161.927 192.657 158.271 187.193C155.63 182.803 152.482 178.705 148.825 174.997C146.083 172.168 142.935 169.826 140.091 167.192L141.208 166.802C151.161 162.607 160.81 157.826 170.052 152.557C179.599 146.801 188.841 140.557 197.677 133.922C189.755 143.191 180.614 151.777 174.521 162.314C173.302 164.753 174.013 167.582 174.318 170.217C176.552 179.583 179.599 188.657 183.357 197.535C186.302 204.072 189.247 210.609 192.193 217.243C197.474 230.805 204.989 243.391 209.864 257.05L211.896 256.952C215.958 256.66 219.919 256.172 223.982 256.074C225.708 255.294 225.505 253.342 225.505 251.781C225.505 245.537 226.419 239.391 225.911 233.146C225.302 224.366 224.794 215.487 221.747 207.194C217.583 194.218 208.341 183.583 201.232 172.168C204.685 171.095 208.036 169.826 211.286 168.363C217.583 165.534 223.982 162.997 229.872 159.387C237.185 155.192 243.99 150.021 249.982 144.167L252.013 146.118C251.708 154.021 253.13 162.021 256.177 169.339C260.544 179.29 263.997 189.632 266.333 200.267C267.146 203.389 267.349 206.609 268.161 209.633C273.036 210.121 277.911 210.804 282.786 211.682L283.701 211.097C284.005 199.194 284.513 187.291 282.786 175.485C282.279 171.095 281.263 166.802 280.552 162.411C279.13 153.435 277.302 144.557 274.966 135.679C271.513 124.849 268.568 113.629 261.966 104.067C250.185 86.8958 237.794 69.9194 222.458 55.6748C223.169 57.8213 224.083 59.9677 225.099 62.0166C225.911 64.846 225.302 67.773 226.013 70.6024C226.724 73.4317 226.622 76.4563 224.489 78.6027C223.575 79.7735 221.95 79.5784 220.63 79.7735C220.122 80.2613 219.513 80.6516 219.005 81.1394L216.974 80.7491C214.435 81.7248 211.693 81.9199 209.154 82.798C209.052 82.0175 208.95 81.3345 208.747 80.554L207.021 80.0662C205.904 77.5295 205.193 74.7977 205.091 71.9683C204.786 67.2851 200.724 64.0655 198.388 60.1629C195.747 56.3578 194.63 51.6747 193.818 47.1866Z" fill="#405466"/>
<path d="M172.59 213.438C174.317 210.023 172.489 203.682 167.614 204.56C163.145 206.316 158.067 208.072 156.036 212.56C155.833 215.584 158.168 218.024 160.809 219.292C162.84 220.365 164.973 219.097 166.801 218.024C168.629 216.56 170.661 214.999 172.59 213.438Z" fill="#935353"/>
<path d="M282.888 211.682C278.013 210.901 273.138 210.121 268.263 209.633C265.622 212.072 261.559 212.072 258.919 214.511C255.77 217.243 252.724 220.463 251.708 224.56C256.278 223.585 258.309 218.316 263.184 217.926C261.559 222.511 260.544 227.292 258.411 231.78C256.278 236.951 253.434 241.927 253.434 247.586C254.958 246.513 256.177 245.147 257.192 243.683C259.731 239.585 261.966 235.39 264.302 231.195C266.536 231.878 268.77 232.17 271.106 232.17C273.341 231.487 275.27 230.122 277.708 230.122C279.739 230.122 281.059 228.268 281.466 226.512C282.481 221.633 282.989 216.658 282.888 211.682Z" fill="#DBB09C"/>
<path d="M172.591 213.438C170.661 215 168.63 216.561 166.599 218.024C168.63 220.366 171.067 222.61 171.88 225.537C172.692 229.829 171.981 234.22 171.88 238.513C171.778 243.294 171.474 248.172 171.067 252.953C171.067 255.001 171.067 258.026 173.606 258.806C175.333 259.392 176.552 257.733 176.958 256.367C178.075 252.074 177.771 247.586 178.888 243.391C180.513 236.269 184.88 230.025 186.2 222.805C187.013 220.268 184.271 218.609 182.138 217.926C178.786 216.756 175.638 215.292 172.591 213.438Z" fill="#DBB09C"/>
<path d="M224.083 255.879C220.021 255.879 216.06 256.367 211.997 256.659C211.388 260.269 211.185 264.074 208.95 267.197C204.279 273.636 200.013 280.368 194.122 285.734C190.771 289.441 186.2 291.978 183.458 296.173C185.083 297.344 187.114 297.93 189.146 297.832C194.122 297.735 199.099 297.052 203.974 295.783C207.427 294.71 210.575 292.661 212.911 289.929C217.888 285.246 221.747 279.782 224.489 273.733C226.318 268.075 224.896 261.83 224.083 255.879Z" fill="#DBB09C"/>
<path d="M175.536 1.62349C170.56 0.55027 165.278 0.647833 160.302 1.81862C154.716 3.47723 150.247 7.37984 145.271 10.0141C141.208 12.5508 136.13 13.624 132.677 17.0388C131.56 18.2096 129.935 20.0634 131.763 21.3317C135.317 19.0877 139.075 17.0388 143.036 15.3802C146.591 14.0143 149.435 11.5752 152.786 10.0141C150.044 15.868 148.317 22.0147 145.982 28.0637C144.966 30.8931 143.646 33.9177 143.95 37.0398C144.153 39.8692 146.591 42.3083 146.286 45.2352C145.677 51.8697 142.63 58.309 143.239 65.041C143.138 65.3337 142.732 65.9191 142.63 66.2118C142.021 67.3826 141.513 68.5534 141.107 69.8217C142.325 69.4315 143.544 69.0412 144.864 68.8461C145.88 69.0412 146.794 68.8461 147.708 68.4558C148.622 67.968 149.232 67.285 149.638 66.407C150.247 68.2607 151.161 70.0169 152.38 71.5779C153.294 71.9682 154.31 72.1633 155.325 72.2609C156.341 73.139 157.56 73.8219 158.88 74.2122C159.388 74.8951 159.997 75.5781 160.607 76.1635C162.028 76.1635 163.45 76.1635 164.872 76.0659C165.177 74.6025 165.482 73.139 165.786 71.6755C166.497 73.6268 166.802 75.6757 166.7 77.7245C167.208 77.3343 167.614 76.944 167.919 76.4562C168.224 75.9684 168.427 75.383 168.427 74.7976C169.036 70.6998 169.747 66.5045 168.427 62.5043C167.513 59.0895 166.193 55.1869 167.919 51.7721C168.63 50.2111 169.239 48.65 169.544 46.9914C169.646 43.7718 169.138 40.5521 167.818 37.6251C166.193 33.0396 165.482 28.2589 165.989 23.4781C166.091 22.6001 166.091 21.3317 167.208 21.039C170.458 19.3804 174.318 18.9901 177.466 17.234C179.091 16.1607 180.411 14.7948 181.427 13.2338C183.357 15.3802 185.489 17.3315 187.927 19.0877C189.552 20.0634 191.482 20.9414 192.091 22.7952C192.294 23.4782 192.497 24.2587 192.599 24.8441C192.7 26.6978 192.7 28.5516 192.599 30.4053V30.8931L191.075 30.5029C190.974 30.9907 190.872 32.0639 190.771 32.5517L192.599 32.3566C192.7 37.43 192.599 42.5034 193.716 47.3817C194.528 51.9673 195.646 56.5528 198.388 60.4555C200.724 64.3581 204.786 67.5777 205.091 72.2609C205.294 75.0903 205.904 77.8221 207.021 80.3588L208.747 80.8466C208.849 81.6272 208.95 82.3101 209.154 83.0906C211.693 82.2126 214.435 81.9199 216.974 81.0418L219.107 81.432C219.614 80.9442 220.224 80.5539 220.732 80.0661C222.052 79.871 223.677 80.0661 224.591 78.8953C226.724 76.7489 226.724 73.5292 226.114 70.895C225.505 68.1631 226.013 65.1386 225.2 62.3092C224.185 60.2603 223.372 58.1139 222.56 55.9674C221.138 50.016 219.005 44.2596 216.161 38.7959C214.029 34.9909 215.146 30.6004 214.943 26.6002C217.786 30.3077 222.154 33.1371 223.779 37.6251C224.997 42.7961 225.404 48.8452 229.771 52.6502C229.771 48.8452 228.146 45.4304 227.435 41.7229C227.232 39.2837 226.521 36.8446 225.505 34.6006C223.88 31.7712 221.239 29.5272 219.005 27.1856C215.958 23.966 215.45 19.3804 213.013 15.7705C209.255 10.3068 203.263 6.6969 197.068 4.35533C192.7 2.59915 187.927 2.50158 183.458 3.8675C180.513 4.84315 178.177 2.20888 175.536 1.62349ZM170.56 9.52628C168.224 12.7459 163.45 13.1362 161.013 16.2583C158.372 19.478 156.747 23.283 156.138 27.3808C155.833 29.5272 156.239 31.7712 155.732 33.9176C154.614 36.1617 152.075 37.7227 152.38 40.4545C152.989 46.0158 156.849 51.1867 155.122 56.8455C155.63 51.0892 152.177 46.0158 151.567 40.357C151.161 37.6251 153.497 35.6738 154.919 33.5274C155.528 30.7956 154.817 27.9662 155.528 25.3319C156.341 20.9415 158.677 16.9413 162.232 13.9167C164.974 12.3557 167.919 11.1849 170.56 9.52628ZM179.7 10.3068C177.771 14.0143 172.896 14.6973 169.036 14.8924C170.255 13.9167 171.778 13.2338 173.302 13.0386C175.536 12.2581 177.669 11.38 179.7 10.3068ZM193.005 17.4291C191.989 17.1364 191.075 16.6486 190.263 15.9656C189.45 15.2827 188.841 14.4046 188.435 13.5265C189.45 13.7216 190.466 14.2094 191.279 14.8924C191.989 15.5753 192.599 16.4534 193.005 17.4291ZM195.95 24.7465C196.661 30.1126 196.458 35.5763 195.341 40.9424C195.138 40.6497 194.833 40.1618 194.63 39.8691C194.021 33.9177 195.036 27.8686 194.122 21.9171C194.935 22.6976 195.95 23.4782 195.95 24.7465ZM201.739 39.674C202.146 45.2352 206.31 49.333 208.239 54.3088C209.661 57.9188 210.982 61.7238 210.372 65.6264C209.154 62.6019 208.849 59.3822 207.529 56.3577C206.005 52.7478 204.177 49.2354 202.146 45.8206C201.536 44.9426 201.232 43.8693 201.13 42.7961C201.13 41.7229 201.232 40.6497 201.739 39.674ZM220.325 70.212C221.341 70.6023 221.95 72.7487 220.732 73.0414C220.224 72.3584 219.411 70.6023 220.325 70.212Z" fill="#F4E6C7"/>
<path d="M197.676 12.3557C193.208 11.38 188.739 10.5995 184.676 8.35547C186.505 11.1849 190.364 11.8678 193.512 12.7459C197.981 13.4289 202.551 16.0631 204.38 20.2585C206.208 24.0635 204.989 28.454 206.817 32.259C208.341 36.8446 213.419 39.3813 214.434 44.2596C215.958 50.5038 215.958 57.1382 218.903 62.9921C218.598 59.2847 217.583 55.6747 217.075 52.0648C216.872 48.7476 216.262 45.3328 215.247 42.1131C213.723 38.3081 209.864 35.9665 208.544 32.1615C206.512 28.3564 207.934 23.8684 206.106 19.9658C204.887 17.0388 202.551 14.5997 199.606 13.1362C198.895 12.9411 198.286 12.6484 197.676 12.3557Z" fill="#BC8F6D"/>
<path d="M179.7 10.3071C177.669 11.3803 175.536 12.2584 173.302 13.039C171.677 13.2341 170.255 13.917 169.036 14.8927C172.997 14.6976 177.77 14.0146 179.7 10.3071Z" fill="#E3C2AB"/>
<path d="M188.028 18.7948C185.692 17.1362 183.458 15.1849 181.528 12.9409C180.513 14.502 179.091 15.8679 177.567 16.9411C174.419 18.6973 170.559 19.0875 167.309 20.7462C166.192 21.1364 166.294 22.3072 166.091 23.1853C165.684 27.966 166.294 32.8443 167.919 37.3323C169.138 40.3568 169.747 43.4789 169.645 46.6986C170.763 48.6499 172.286 50.5036 173.911 52.0647C175.536 53.2355 177.364 54.016 179.395 54.3087C181.427 54.6014 183.458 54.4062 185.286 53.7233C188.638 52.1622 190.872 49.3328 193.005 46.5034L193.817 46.8937C192.599 42.0154 192.802 36.942 192.7 31.8686L190.872 32.0638L189.044 32.6492L187.825 30.21C188.231 31.2832 186.606 31.9662 186.2 30.893L185.591 30.21C187.825 29.4295 190.364 29.3319 192.7 29.9173C192.802 28.0636 192.802 26.2098 192.7 24.3561C189.958 24.2585 187.216 24.1609 184.474 24.1609C186.2 21.7218 189.552 22.5023 192.091 22.3072C191.481 20.6486 189.552 19.7705 188.028 18.7948ZM177.263 24.0634C174.114 23.9658 170.864 23.8683 167.614 24.0634C168.224 23.3804 168.731 22.3072 169.747 22.3072C172.388 22.1121 175.942 21.234 177.263 24.0634ZM182.138 30.893C182.239 34.0151 183.255 37.0396 183.356 40.1617C181.833 38.8933 182.138 36.6493 181.63 34.8931C181.02 31.9662 180.919 28.9417 181.427 25.9171C182.95 27.283 182.036 29.2344 182.138 30.893ZM178.278 30.6978L177.263 30.3076L176.247 31.3808L175.536 31.1857C175.435 31.4784 175.231 31.6735 175.028 31.8686C174.825 32.0638 174.52 32.1613 174.114 32.1613C173.81 32.1613 173.505 32.0638 173.2 31.8686C172.997 31.6735 172.794 31.4784 172.692 31.1857C171.677 31.7711 170.966 31.5759 170.559 30.4051L169.747 30.6003C170.966 29.6246 172.489 29.1368 174.013 29.1368C175.638 29.2344 177.059 29.7222 178.278 30.6978ZM181.122 39.2836C182.036 40.3568 179.903 41.1373 179.294 40.1617C178.38 39.0885 180.513 38.4055 181.122 39.2836ZM184.372 46.5034C183.255 46.601 182.036 46.6986 180.919 46.9913C181.935 47.0888 182.95 47.3815 183.763 47.9669C182.849 48.1621 181.833 48.0645 181.02 47.6742C180.106 47.284 179.395 46.6986 178.888 46.0156C180.513 45.918 182.95 44.8448 184.372 46.5034Z" fill="#DBB09D"/>
<path d="M193.005 17.429C192.598 16.4533 191.989 15.5752 191.177 14.8923C190.364 14.2093 189.348 13.7215 188.333 13.5264C188.739 14.502 189.348 15.2826 190.161 15.9655C190.973 16.6485 191.989 17.1363 193.005 17.429Z" fill="#E1BBA6"/>
<path d="M196.052 24.6487C196.052 23.4779 194.934 22.6974 194.224 21.8193C195.138 27.7708 194.122 33.8199 194.731 39.7714C194.934 40.0641 195.239 40.5519 195.442 40.8446C196.559 35.5761 196.763 30.1124 196.052 24.6487Z" fill="#DEB4A1"/>
<path d="M177.263 24.0634C175.942 21.3316 172.388 22.1121 169.849 22.2097C168.731 22.2097 168.325 23.3805 167.716 23.9659C170.864 23.9659 174.114 23.9659 177.263 24.0634Z" fill="#B27D5C"/>
<path d="M192.192 22.5024C189.552 22.6976 186.2 21.9171 184.575 24.3562C187.317 24.3562 190.06 24.3562 192.802 24.5513C192.497 23.9659 192.294 23.1854 192.192 22.5024Z" fill="#B27D5C"/>
<path d="M182.137 30.8929C182.036 29.2343 182.848 27.3806 181.528 26.0146C181.02 28.9416 181.02 31.9661 181.731 34.9907C182.239 36.7468 181.833 38.9908 183.458 40.2592C183.255 37.0395 182.341 33.9175 182.137 30.8929Z" fill="#A18275"/>
<path d="M178.278 30.6978C177.059 29.7221 175.637 29.1367 174.012 29.1367C172.489 29.1367 170.965 29.6245 169.747 30.6002L170.559 30.4051C171.169 30.1124 171.88 30.0148 172.591 30.1124C172.591 30.4051 172.692 30.8929 172.692 31.1856C172.794 31.4783 172.997 31.6734 173.2 31.8686C173.505 32.0637 173.809 32.1613 174.114 32.1613C174.419 32.1613 174.723 32.0637 175.028 31.8686C175.333 31.6734 175.434 31.4783 175.536 31.1856V30.0148C175.942 30.1124 176.755 30.2099 177.161 30.4051L178.278 30.6978Z" fill="#010101"/>
<path d="M192.7 30.1122C190.364 29.5268 187.927 29.6243 185.591 30.4049L186.2 31.0878L187.825 30.4049L189.044 32.844L190.872 32.2586C190.974 31.7708 191.075 30.6976 191.177 30.2097L192.7 30.6V30.1122Z" fill="#020202"/>
<path d="M177.263 30.3072C176.856 30.2097 176.044 30.0146 175.638 29.917V31.0878L176.349 31.2829L177.263 30.3072Z" fill="#E7E5E4"/>
<path d="M172.591 30.0146C171.88 29.917 171.169 30.0146 170.56 30.3073C170.966 31.4781 171.677 31.7708 172.692 31.0878C172.692 30.8927 172.591 30.3073 172.591 30.0146Z" fill="#F1EAE7"/>
<path d="M187.825 30.5024L186.2 31.1854C186.606 32.2587 188.333 31.5757 187.825 30.5024Z" fill="#F9F6F4"/>
<path d="M181.122 39.2836C180.512 38.4055 178.379 39.0885 179.294 40.1617C179.903 41.1373 182.036 40.4544 181.122 39.2836Z" fill="#A58477"/>
<path d="M201.739 39.6738C201.333 40.6495 201.13 41.7227 201.231 42.7959C201.333 43.8691 201.638 44.9424 202.247 45.8205C204.278 49.2352 206.106 52.7476 207.63 56.3575C208.849 59.382 209.255 62.6017 210.473 65.6262C211.184 61.7236 209.763 57.9186 208.341 54.3086C206.309 49.2352 202.145 45.1375 201.739 39.6738Z" fill="#BE906D"/>
<path d="M184.372 46.5038C183.052 44.8452 180.614 45.8208 178.786 45.9184C179.294 46.6989 180.106 47.2843 180.919 47.577C181.833 47.9673 182.747 48.0648 183.661 47.8697C182.849 47.2843 181.833 46.9916 180.817 46.8941C182.036 46.7965 183.153 46.6014 184.372 46.5038Z" fill="#866B60"/>
<path d="M220.325 70.1143C219.309 70.6021 220.122 72.3583 220.731 72.9437C221.95 72.7485 221.442 70.5045 220.325 70.1143Z" fill="#D5CDB7"/>
<path d="M25.6296 78.7974C22.278 80.456 18.7233 81.8219 15.2701 83.0903C13.2389 84.5537 11.7154 86.6026 10.8014 88.8466C12.5279 90.7004 11.817 93.1395 11.6139 95.2859C11.6139 97.1397 12.1217 98.9934 13.2389 100.554C15.2701 102.408 17.5046 105.14 20.653 104.457C24.1062 103.384 26.239 100.457 28.4733 98.0178C29.2859 102.506 25.7312 106.213 25.6296 110.701C29.3874 109.238 31.114 105.335 32.739 102.116C34.8718 98.3105 33.2468 93.8225 35.075 89.8223C31.7234 86.1148 28.4734 82.6024 25.6296 78.7974Z" fill="#DBB09C"/>
<path d="M28.7779 138.215C25.9342 137.239 22.8873 136.654 19.8404 136.654C21.1607 142.8 27.2545 146.118 32.231 149.24C37.3092 152.362 43.0982 154.313 49.0904 154.801C44.8248 154.899 40.4576 154.703 36.192 154.216C29.2857 153.533 22.3794 153.142 15.4732 152.264C10.2935 151.679 4.70753 150.898 0.0356445 153.435C0.441895 154.216 0.84816 154.996 1.25441 155.679L1.96536 156.069C6.12943 158.704 11.106 159.582 15.8794 160.655C22.5826 162.118 29.3873 163.094 36.192 163.484C45.4342 164.362 54.7779 164.07 64.0201 162.704C71.028 161.338 77.7311 158.899 84.4342 156.557C89.7155 154.801 94.7937 152.459 100.481 151.679C107.083 150.898 113.684 151.093 120.184 152.459C121.302 151.093 122.419 149.825 123.637 148.557C117.95 143.678 110.536 140.947 103.223 139.288C88.4968 137.044 74.3796 143.288 59.7545 143.776C53.0514 143.971 46.2467 143.386 39.6451 142.02C35.9888 141.142 32.3326 139.873 28.7779 138.215ZM90.7311 148.167C86.5671 149.923 82.0983 150.996 77.6296 151.386C81.8952 150.02 86.1608 148.264 90.7311 148.167Z" fill="white"/>
<path d="M178.177 342.419C175.231 340.956 171.778 340.468 168.528 340.956C168.122 346.712 172.997 350.908 177.466 354.127C188.841 362.811 202.45 368.372 216.364 372.372C227.028 375.396 237.489 379.104 247.544 383.397C255.263 387.007 262.677 391.105 269.685 395.788C270.7 396.568 273.138 396.568 273.239 394.91C273.341 393.251 271.919 391.788 270.7 390.617C258.208 379.397 242.568 372.177 226.724 366.323C220.833 364.176 214.942 362.225 209.255 359.786C198.185 355.298 188.536 348.078 178.177 342.419Z" fill="white"/>
<path d="M184.224 315.752C185.993 316.303 187.764 316.855 189.552 317.345C192.213 319.572 195.455 320.892 198.787 322.249L198.787 322.25L198.789 322.25C199.398 322.498 200.01 322.748 200.622 323.004C205.497 325.443 210.169 328.37 214.333 331.785C216.299 333.464 218.304 335.071 220.305 336.676L220.306 336.677C222.955 338.801 225.6 340.921 228.145 343.2C238.505 352.469 250.591 359.981 263.692 365.25C274.153 369.25 283.7 375.006 293.146 380.763C296.713 382.537 307.084 390.024 309.7 392.08C313.052 394.715 316.2 397.642 319.146 400.666C319.515 401.176 319.958 401.691 320.411 402.218L320.411 402.218C321.951 404.01 323.61 405.939 322.903 408.276C321.883 409.168 320.693 408.349 319.72 407.68L319.72 407.68C319.628 407.617 319.538 407.555 319.45 407.496C315.794 404.471 312.036 401.739 308.075 399.203C301.613 394.229 287.937 386.871 281.771 383.982C275.604 381.093 276.183 381.523 273.492 380.145C271.081 378.911 268.674 377.679 266.13 376.665C265.225 376.31 264.318 375.956 263.411 375.602L263.411 375.602C252.098 371.186 240.673 366.726 230.989 359.591C225.69 355.84 220.759 351.619 215.825 347.395C211.775 343.928 207.724 340.459 203.466 337.249C201.778 336.032 200.025 334.899 198.267 333.763C196.217 332.438 194.161 331.109 192.192 329.638C190.461 328.332 188.646 327.121 186.828 325.909L186.828 325.909C184.168 324.135 181.504 322.359 179.091 320.272C178.207 319.511 177.296 318.776 176.385 318.042C174.259 316.328 172.134 314.613 170.356 312.564C175.113 312.916 179.659 314.331 184.221 315.752L184.224 315.752Z" fill="white"/>
<path d="M100.684 151.777C107.286 150.996 113.887 151.191 120.387 152.557C117.239 156.85 114.395 161.241 111.551 166.217C109.723 169.143 109.114 172.949 111.348 175.778C114.436 179.662 118.481 182.728 122.522 185.791C124.063 186.959 125.604 188.127 127.09 189.34C129.833 191.584 132.473 193.73 135.419 195.681C142.63 200.95 149.333 206.804 155.731 212.95C155.63 215.877 157.864 218.414 160.505 219.682C162.637 220.756 164.77 219.487 166.497 218.414C166.698 218.637 166.903 218.86 167.108 219.085C168.977 221.128 170.955 223.29 171.778 225.927C172.359 228.998 172.161 232.12 171.963 235.22V235.22C171.885 236.453 171.807 237.682 171.778 238.903C171.676 243.683 171.372 248.562 170.965 253.342C170.965 255.489 170.965 258.513 173.505 259.196C175.231 259.782 176.551 258.221 176.856 256.757C177.487 254.587 177.682 252.339 177.879 250.08C178.062 247.971 178.246 245.853 178.786 243.781C179.548 240.22 180.995 236.854 182.442 233.488L182.442 233.487C183.889 230.122 185.337 226.756 186.098 223.195C186.911 220.658 184.169 218.999 182.036 218.316C178.684 217.243 175.434 215.682 172.489 213.828C174.317 210.414 172.387 204.169 167.512 204.95C166.82 203.574 166.145 202.187 165.469 200.8C163.27 196.285 161.067 191.763 158.27 187.583C155.528 183.193 152.38 179.095 148.825 175.388C147.175 173.685 145.378 172.16 143.589 170.641C142.404 169.635 141.223 168.632 140.09 167.582L141.208 167.192C143.715 168.638 146.107 170.269 148.502 171.903C149.987 172.915 151.473 173.929 152.989 174.9C156.484 177.076 159.772 179.609 163.065 182.144C164.94 183.588 166.815 185.032 168.731 186.413C169.686 187.105 170.648 187.794 171.611 188.484L171.617 188.488C175.676 191.394 179.766 194.322 183.458 197.633C185.377 201.75 187.215 205.906 189.049 210.052L189.05 210.053C190.128 212.489 191.204 214.922 192.294 217.341C194.736 223.735 197.72 229.912 200.703 236.087C204.047 243.009 207.389 249.928 209.966 257.148L211.997 257.05C211.943 257.432 211.892 257.817 211.84 258.204C211.403 261.476 210.948 264.883 208.95 267.587C207.906 269.004 206.888 270.44 205.869 271.877L205.869 271.877C202.326 276.873 198.775 281.881 194.122 286.124C192.757 287.634 191.19 288.95 189.626 290.263C187.351 292.173 185.083 294.077 183.458 296.564C185.083 297.735 187.114 298.32 189.145 298.223C194.223 298.027 199.098 297.442 203.973 296.174C207.528 295.1 210.575 293.052 212.911 290.32C217.786 285.734 221.747 280.173 224.489 274.124C226.037 269.167 225.255 263.999 224.485 258.919L224.485 258.918C224.346 257.999 224.207 257.083 224.083 256.172C225.473 255.421 225.525 253.956 225.575 252.571L225.575 252.57C225.583 252.336 225.592 252.105 225.606 251.879C225.562 249.162 225.71 246.464 225.858 243.768C226.05 240.268 226.242 236.771 226.012 233.244C234.747 240.171 242.77 247.976 249.981 256.367C259.223 266.416 267.755 277.051 275.473 288.173C277.521 291.055 279.367 294.043 281.212 297.029C283.301 300.412 285.389 303.79 287.763 307.003C288.799 308.686 288.533 308.42 290.696 312.172C292.86 315.925 304.895 340.1 307.631 347.457C310.366 354.814 313.255 362.713 313.255 362.713C313.566 363.736 313.88 364.757 314.193 365.778L314.194 365.78C316.543 373.426 318.883 381.04 319.958 388.958C320.669 392.861 321.177 397.154 319.145 400.764C316.302 397.642 313.153 394.812 309.7 392.178L301.677 386.227C301.373 386.041 301.077 385.863 300.787 385.688C300.008 385.218 299.268 384.773 298.528 384.275L292.942 380.958C283.497 375.202 273.848 369.445 263.489 365.445C250.387 360.177 238.403 352.762 227.942 343.493C225.127 340.914 222.1 338.497 219.08 336.086L219.079 336.085C217.415 334.756 215.753 333.429 214.13 332.078C209.966 328.565 205.395 325.638 200.419 323.297C199.578 322.893 198.721 322.505 197.862 322.115L197.86 322.114C194.983 320.81 192.077 319.494 189.653 317.541C186.307 314.636 182.931 311.76 179.556 308.886L179.555 308.885L179.555 308.885C172.277 302.685 165.006 296.493 158.067 290.027C151.815 284.161 146.136 277.845 140.47 271.544L140.468 271.542C138.219 269.041 135.972 266.542 133.692 264.075C122.547 251.052 112.615 237.185 102.688 223.325L102.688 223.325C97.1454 215.587 91.605 207.852 85.8559 200.267C80.1684 192.462 74.9887 184.364 70.2153 176.071C69.5613 174.919 68.8854 173.781 68.2111 172.646L68.2096 172.644L68.2095 172.643C66.3711 169.549 64.5447 166.475 63.2075 163.192L64.2231 162.802C69.9228 161.691 75.421 159.805 80.8815 157.933C82.1347 157.503 83.386 157.074 84.6372 156.655C86.0471 156.186 87.4498 155.676 88.8549 155.164C92.713 153.76 96.5894 152.349 100.684 151.777Z" fill="#2A7167"/>
<path d="M90.7312 148.167C86.1609 148.265 81.7937 150.021 77.6296 151.387C82.1999 151.094 86.5671 149.923 90.7312 148.167Z" fill="#CFDEDC"/>
<path d="M170.447 9.50293C167.765 11.1344 164.89 12.2767 162.308 13.8116C158.922 16.8008 156.613 20.7746 155.683 25.1511C154.868 27.7747 155.631 30.608 155.013 33.3308C153.709 35.4625 151.42 37.3899 151.69 40.1211C152.23 45.681 155.638 50.878 154.991 56.6216C156.724 50.8883 153.02 45.6884 152.479 40.226C152.209 37.4948 154.791 35.9599 155.8 33.728C156.313 31.5889 155.94 29.344 156.256 27.203C156.886 23.2134 158.503 19.3306 161.101 16.1391C163.599 13.0442 168.243 12.7955 170.447 9.50293Z" fill="#935352"/>
</svg>
