<svg width="124" height="96" viewBox="0 0 124 96" fill="none" xmlns="http://www.w3.org/2000/svg">
<path d="M78.0547 16.6343L78.4051 16.9066L78.0547 16.6343Z" fill="#935352"/>
<path d="M7.90907 51.4941C8.77969 52.546 9.26071 53.8578 9.20915 55.1308C9.27504 58.1833 9.66569 61.3007 9.49772 64.1714C7.74293 60.2751 8.02731 55.8066 7.90907 51.4941Z" fill="#935352"/>
<path d="M13.4177 54.1812L14.1451 54.09C14.6134 56.1422 15.0946 58.2983 15.3681 60.4805C15.7197 63.2861 17.3961 65.7146 17.7477 68.5202C14.0964 64.6505 14.2376 59.039 13.4177 54.1812Z" fill="#935352"/>
<path d="M24.3608 73.2852C24.2045 72.0382 25.3734 71.2585 26.2435 70.6217C25.7893 72.0507 24.8285 73.6487 25.7513 75.1162C27.0638 77.1682 28.8569 78.8433 30.9226 80.1676C32.9884 81.4919 35.3138 82.3614 37.678 82.6984C41.4063 83.8144 45.6014 81.9166 48.9534 84.2407C42.7572 83.6451 36.1589 84.8941 30.5724 81.5835C27.6881 79.623 24.2061 77.1041 24.3608 73.2852Z" fill="#935352"/>
<path d="M24.5447 79.8062C26.7531 80.5848 28.4553 82.3769 30.5599 83.1686C34.6781 84.8689 39.2114 84.8285 43.1739 86.9706C40.1344 87.1404 37.1464 86.0372 34.1197 85.4666C30.3526 84.8833 26.5591 83.2478 24.5447 79.8062Z" fill="#935352"/>
<path d="M45.1109 10.6309C46.7345 10.1108 48.3319 9.38287 49.9555 8.86278C51.8004 10.1092 53.9828 10.6801 56.178 10.5105C55.0216 9.70553 53.7614 8.91356 52.4103 8.23853C61.7231 5.91051 71.5176 7.42725 79.7285 12.3088C84.3147 15.217 87.992 19.2946 91.8251 22.9304C95.1643 25.9949 98.4127 29.1764 101.843 32.1239C105.637 35.4481 110.794 36.1739 115.393 37.4974C116.198 38.874 117.004 40.2506 118.005 41.4973C115.265 44.9014 112.174 48.0329 108.707 50.6838C105.889 52.6201 105.176 56.1925 103.189 58.8689C100.553 62.26 97.4627 65.3914 94.8269 68.7825C89.711 75.123 85.4787 82.6193 78.1929 86.8041C76.8941 87.3891 75.4393 87.5714 74.0364 87.325C74.6455 82.9214 78.0218 79.5431 79.5143 75.4509C75.8128 77.0757 71.7732 77.6875 68.0978 79.5202C61.6169 82.5487 55.4221 86.1747 48.4602 87.8915C43.031 89.2051 37.095 89.8434 32.0153 87.2081C27.9879 85.3909 24.1291 82.3915 22.8288 77.9105C20.5672 73.3389 22.8647 68.0904 26.254 64.816C24.6304 65.3361 22.6691 65.6874 21.5784 67.0906C18.5142 71.2742 17.8405 76.8469 14.3085 80.6669C11.7482 76.2383 10.3958 71.3417 8.41987 66.5232C6.52183 61.4838 4.49384 56.2497 5.49233 50.7418C11.3242 49.2722 16.0929 54.4795 21.8862 54.3868C18.1967 52.7382 14.6759 50.7519 11.3369 48.5318C10.1936 47.8307 9.33603 46.8827 8.88106 45.7788C8.87948 40.7128 11.5669 36.0488 14.5663 32.1899C17.9162 27.7595 21.1231 23.0303 25.7854 19.8075C30.7593 16.5455 36.1232 13.868 41.6691 11.801C43.9424 12.2549 46.3975 12.475 48.8135 12.3833C47.5663 11.6952 46.3321 11.1111 45.1109 10.6309ZM67.506 14.1571C69.4938 15.7022 71.6505 16.9096 73.6514 18.5586C75.5093 19.9089 77.1984 21.5971 79.5757 22.038C77.4836 19.6615 74.7423 17.9997 72.1828 16.104C70.7926 15.1173 69.3503 13.7148 67.506 14.1571ZM76.027 13.9336L77.2357 15.9986L77.5865 16.2712L78.0672 16.7387L78.418 17.0114C81.9388 18.9977 82.356 24.0115 86.3961 25.0884L85.993 23.5557L86.9409 22.6981C85.5505 20.8671 84.0561 19.049 82.4839 17.4518C79.9897 16.92 78.3524 14.8032 76.027 13.9336ZM58.0898 18.1867C61.3113 18.6274 64.3253 19.9384 66.9887 21.821C69.7303 24.3272 72.9263 26.2486 76.356 27.5075C73.6665 25.4171 70.5225 23.9113 68.0018 21.483C65.2084 19.4055 61.6616 17.2114 58.0898 18.1867ZM65.2985 16.7557C70.3783 19.391 74.1076 23.8842 78.7329 27.1041C77.706 24.8053 75.3285 23.5201 73.6394 21.832C71.2616 19.7024 68.637 17.2872 65.2985 16.7557ZM26.7346 23.1714C22.488 26.3422 18.9691 30.2661 16.3856 34.9172C14.542 37.8924 13.1662 41.2311 12.5438 44.6865C14.6603 42.2048 15.2957 38.8533 16.9575 36.112C19.7486 30.5906 24.5145 26.5104 29.1895 22.5472C28.7478 22.3915 28.3321 22.4435 27.9165 22.4956C27.5138 22.6516 27.1112 22.8076 26.7346 23.1714ZM53.0502 19.2405C55.5316 20.5127 58.2466 21.1223 60.6371 22.5115C64.2878 24.6926 68.5227 25.6395 72.0695 27.8336C70.1462 25.1194 66.8078 24.5879 64.1055 23.2378C60.5199 21.5762 57.0509 19.1613 53.0502 19.2405ZM23.8269 29.4463C19.035 33.3187 15.4778 39.4638 15.7265 45.6597C17.1935 43.0484 17.5563 40.0477 18.9194 37.4494C20.9315 33.2921 24.8015 30.4851 28.1128 27.4316C29.7101 25.8594 31.749 24.4429 32.4107 22.1435C29.2939 24.2228 26.6969 27.0813 23.8269 29.4463ZM48.1538 21.4372C52.0124 23.5923 56.6366 23.435 60.7288 24.9275C57.039 22.4346 52.4017 22.488 48.1538 21.4372ZM45.0891 23.9321C46.3623 24.828 48.0119 24.5158 49.5057 24.6452C52.1556 24.7353 54.5722 26.3323 57.209 26.3184C55.468 25.059 53.4674 24.2543 51.4149 23.8782C49.3625 23.5022 47.1413 23.4639 45.0891 23.9321ZM41.2706 25.4661C43.3366 27.6347 46.7397 26.9972 49.4026 27.1912C47.09 25.5812 43.9856 26.0758 41.2706 25.4661ZM94.1012 32.6719C93.3861 30.334 91.2943 28.8019 90.4752 26.477C89.8252 24.6587 88.9934 23.0742 87.7589 21.6457C89.0072 25.7111 90.6841 29.8282 94.1012 32.6719ZM41.5443 28.4926C44.2724 29.2061 47.247 29.3611 49.9881 30.1786C53.0539 31.0609 55.7303 33.0475 58.8091 34.0337C61.888 35.02 64.4735 37.1235 67.5524 38.1097C64.6157 34.8892 60.2509 33.7475 56.4444 32.0081C51.8843 29.3077 46.766 28.0493 41.5443 28.4926ZM63.0542 25.7971C62.8726 26.8752 63.2234 27.1479 64.2365 26.8099C64.418 25.7317 63.9503 25.3681 63.0542 25.7971ZM54.8714 27.8779C57.5091 30.3971 61.1983 31.2013 64.2644 32.9279C67.3823 34.2259 69.4355 37.1349 72.787 37.7704C69.7598 35.5111 67.0052 32.9011 63.3547 31.5643C60.4707 30.4481 57.7424 28.8902 54.8714 27.8779ZM65.5095 26.8614C64.7954 27.9008 66.4325 29.1733 67.2635 28.2248C67.9776 27.1854 66.3405 25.9129 65.5095 26.8614ZM38.2718 31.0135C42.1168 31.3761 46.0266 31.4138 49.6383 33.2832C53.1721 35.3734 57.3549 35.9047 60.9796 37.878C59.68 35.9299 57.2898 35.3851 55.2243 34.9051C52.5223 34.3994 50.2876 32.5686 47.6634 31.842C44.5716 30.7518 41.3631 30.4151 38.2718 31.0135ZM62.5481 27.6547C66.6669 31.0437 71.2531 33.9519 76.0859 36.3015C75.3062 35.1327 74.2407 34.2108 72.9157 33.7436C69.2261 32.0951 66.3155 29.0824 62.5481 27.6547ZM33.4663 33.0934C36.324 33.1574 39.2468 33.741 41.897 34.6755C44.3523 35.7398 46.8725 36.4795 49.5485 36.7774C52.2114 36.9714 54.6149 38.4645 57.2648 38.5546C53.419 35.6591 48.3143 36.1932 44.0791 34.402C40.7274 32.9222 36.9733 32.4428 33.4663 33.0934ZM69.2511 28.9256C71.3302 31.1981 73.9806 32.9769 76.8516 33.9892C74.396 32.0805 71.8625 30.3926 69.2511 28.9256ZM93.4499 26.6319C94.113 28.5542 95.4774 30.1775 97.1923 31.2291C96.9582 30.203 96.4253 29.3199 95.7886 28.4498C95.1648 27.6836 94.2424 27.0604 93.4499 26.6319ZM33.0124 35.3667C38.2731 35.2351 42.8463 38.0395 47.9124 38.8822C49.874 39.3752 51.7707 40.1929 53.8362 40.6729C50.393 37.6214 45.574 37.9087 41.5597 36.1953C38.7666 34.9622 35.7789 34.7033 33.0124 35.3667ZM34.6367 37.3795C35.1435 38.0548 35.8451 38.6002 36.7285 38.9116C39.6255 40.1318 42.6004 41.131 45.6271 41.7016C42.0415 40.0401 38.378 38.5994 34.6367 37.3795ZM96.9334 34.2167L95.4529 35.0355L96.2975 35.8796C95.7133 37.1138 95.48 38.6206 95.7532 39.9585C96.0524 41.5041 97.5983 42.0492 98.7416 42.7503C98.6768 43.0751 98.664 43.8155 98.5992 44.1402C99.2487 44.2699 99.8852 44.2957 100.496 44.1137C101.106 43.9316 101.704 43.6457 102.184 43.2688C100.703 42.399 98.9492 41.8799 97.559 40.8932C96.9613 40.3348 96.5454 39.5426 96.5451 38.6982C96.441 37.867 96.6485 36.9966 97.1939 36.295C98.0379 35.4504 99.4148 35.489 100.415 35.047L97.9468 34.723L96.9334 34.2167ZM86.4388 37.2206C84.5179 42.1052 87.2084 47.573 90.2232 51.417C92.9908 54.1309 96.9009 55.013 100.37 56.5836C97.7577 53.428 92.7309 53.7413 90.3917 50.2349C87.5978 46.4688 86.1805 41.8969 86.4388 37.2206ZM29.807 45.1618C32.1714 46.3431 34.0945 48.213 35.4331 50.4727C35.1599 49.1349 34.7698 47.7062 34.0939 46.5243C34.6396 46.667 35.1852 46.8098 35.6529 47.1733C36.1206 47.5369 36.4845 47.9135 36.7574 48.407C37.0303 48.9005 37.1993 49.407 37.2775 50.0305C37.3426 50.5501 37.3168 51.1866 37.1741 51.7322C36.266 55.4345 31.8756 55.7736 28.9403 56.7747C33.539 58.0982 39.7987 54.1474 38.0825 48.8742C36.7954 45.3414 32.4444 46.8366 29.807 45.1618ZM97.9223 39.5811C98.3515 41.3216 100.43 41.0611 101.833 41.3075C102.092 40.0085 102.416 38.3847 101.039 37.5018C100.688 37.2292 100.351 37.0604 99.9219 37.0086C99.4932 36.9567 99.0906 37.1127 98.701 37.3727C98.3114 37.6326 98.0387 37.9834 97.883 38.4251C97.7142 38.7628 97.6624 39.1915 97.9223 39.5811ZM50.2667 49.2471C47.7346 51.7808 44.5917 53.6523 41.0199 54.6276C42.8127 55.4584 44.7868 54.3667 46.3842 53.6388C50.5402 51.4293 52.7989 46.7134 57.2278 44.9974C59.3318 44.1004 61.488 43.6192 63.8131 43.6444C63.1245 43.203 62.2541 42.9954 61.4098 42.9957C57.0325 43.4387 52.9935 45.7391 50.2667 49.2471ZM7.9995 51.3775C8.11775 55.69 7.72945 60.1715 9.60118 64.1587C9.74311 61.0801 9.36548 58.0667 9.31261 55.1181C9.35115 53.7412 8.87013 52.4294 7.9995 51.3775ZM68.8011 43.8637C72.5172 47.4087 78.1287 47.5498 82.3641 50.1854C80.9346 48.0426 78.2457 47.6407 76.1151 46.6412C73.517 46.1224 71.4122 44.4864 68.8011 43.8637ZM40.7074 52.1337C43.1361 51.3017 45.9415 50.1058 46.6681 47.4817C44.3953 48.7164 42.3825 50.3407 40.7074 52.1337ZM57.1768 47.959C52.6703 50.7402 48.6706 54.1966 44.281 57.0687C42.333 58.3682 39.956 58.7716 38.151 60.3699C40.437 60.0834 42.658 59.2774 44.736 58.1726C50.6061 54.4818 55.5405 49.2195 62.0864 46.7105C60.2809 46.6201 58.5534 47.1532 57.1768 47.959ZM69.4796 53.4887C71.3635 55.0469 68.2727 57.334 69.7541 59.0482C71.3911 60.3206 73.1321 61.5801 74.8471 62.6317C75.9773 63.2288 77.1331 62.3452 78.0032 61.7084C74.938 62.5147 72.9368 60.0214 70.6242 58.4114C70.0002 56.8009 72.0909 54.9557 70.7395 53.4364C68.7905 51.3587 66.5297 49.32 66.7755 46.2284C65.1658 49.3854 67.5696 51.7227 69.4796 53.4887ZM10.9489 53.8576C10.6515 58.2222 11.3023 62.5735 12.9792 66.6906C13.8501 68.5868 14.2666 71.0677 16.1115 72.3141C15.1229 67.7941 12.6146 63.7811 12.4573 59.1568C12.0281 57.4164 12.4951 55.247 10.9489 53.8576ZM13.5079 54.0646C14.3277 58.9225 14.1866 64.534 17.9418 68.3907C17.5902 65.5851 15.9138 63.1566 15.5622 60.3509C15.1848 58.1818 14.8075 56.0127 14.2353 53.9735L13.5079 54.0646ZM103.771 49.1915C104.33 51.1268 103.408 53.0366 103.227 54.9591C106.954 51.8534 103.783 46.7625 103.314 43.0217C102.418 45.1392 103.536 47.3211 103.771 49.1915ZM71.6471 48.0454C74.1679 50.4737 77.948 51.161 81.3513 51.3677C78.4801 49.5111 74.8299 49.0187 71.6471 48.0454ZM49.0873 57.5218C46.1655 60.3155 42.035 61.0441 38.4114 62.4481C40.9313 62.3434 43.4901 61.7062 45.7889 60.6793C48.6852 59.3664 50.8017 56.8848 53.412 54.9745C55.9184 53.0773 59.3472 51.8032 62.4122 50.1526C57.3856 51.3102 52.7492 53.8966 49.0873 57.5218ZM100.704 45.7762C101.186 48.7767 101.148 51.8422 101.733 54.8296C102.291 53.3876 102.511 51.7768 102.316 50.2182C102.121 48.6595 101.51 47.1529 100.704 45.7762ZM90.6899 48.4032C91.691 51.3386 95.0427 52.8183 97.9395 53.1941C95.7956 51.2464 93.1194 50.1041 90.6899 48.4032ZM54.8675 57.3252C49.8287 60.9118 44.2961 63.9271 38.0223 64.3967C40.7243 64.9024 43.426 64.5639 45.9196 63.407C52.5304 60.5733 57.9456 55.7785 64.4264 52.7499C60.5817 53.2317 57.6987 55.4928 54.8675 57.3252ZM72.2977 51.5524C73.467 52.4613 74.8051 53.0324 76.2081 53.2788C77.611 53.5252 79.0658 53.3429 80.4815 52.8488C77.8574 52.1222 75.0645 51.7334 72.2977 51.5524ZM83.8085 58.3424C84.1588 56.9264 83.353 55.5498 83.4824 54.0559C84.1057 53.1335 84.7289 52.211 85.456 51.2755C81.91 51.6144 80.9503 56.5897 83.8085 58.3424ZM73.7535 54.7474C75.7414 56.2925 79.4174 56.1485 80.7156 53.8749C78.2866 53.8627 76.0005 54.1492 73.7535 54.7474ZM46.6218 65.641C44.3878 66.3431 42.1017 66.6296 39.8677 67.3317C45.4405 68.0055 50.8043 65.328 55.4017 62.4299C58.6485 60.5454 62.0252 58.8557 65.415 57.2699C58.2451 58.1684 53.1159 63.5607 46.6218 65.641ZM74.9624 57.6567L78.3009 58.1882L75.8851 59.1242C76.7295 59.1239 77.5608 59.0198 78.3012 59.0325C79.8859 59.045 80.0802 57.2264 80.6773 56.0961L74.9624 57.6567ZM10.2642 66.0809C10.3689 68.6009 11.1752 71.6662 13.5527 72.9514C12.9154 70.3926 11.7846 68.1068 10.2642 66.0809ZM58.1172 64.7282C53.8185 67.4833 48.8571 69.1605 43.7524 69.6946C47.9742 70.5376 52.2992 68.8347 56.0655 66.8851C59.7408 64.2081 63.7019 62.1285 67.949 60.6464C64.2858 60.05 61.1562 62.8697 58.1172 64.7282ZM93.5895 58.0665C91.0313 60.3925 88.1093 62.3418 85.5511 64.6677C88.1747 63.7057 90.5123 62.1462 92.4861 60.2102C93.0445 59.6125 93.4859 58.9239 93.5895 58.0665ZM52.144 70.965C53.1183 71.1595 54.1574 71.0293 55.0796 70.8082C56.0017 70.5871 56.8979 70.1582 57.768 69.5214C60.2744 67.6242 63.0407 66.1165 65.677 64.4141C60.5075 65.273 57.3396 70.3139 52.144 70.965ZM24.2432 73.1949C24.1924 77.0008 27.6744 79.5197 30.4547 81.4932C36.0413 84.8038 42.6395 83.5548 48.8357 84.1504C45.4837 81.8263 41.2626 83.5163 37.5604 82.6081C35.1962 82.2711 32.8708 81.4016 30.805 80.0773C28.7393 78.753 27.0501 77.0649 25.6336 75.026C24.7109 73.5584 25.6716 71.9604 26.1258 70.5314C25.3727 71.2591 24.1908 71.9349 24.2432 73.1949ZM59.0675 71.4694C57.3531 72.1065 55.4827 72.3409 53.6514 72.887C56.7302 73.8732 59.9252 72.4174 62.6006 71.0267C64.8733 69.792 67.2891 68.856 69.0421 66.8421C65.4572 67.7135 62.5873 70.0785 59.0675 71.4694ZM72.2649 71.5043C76.0446 70.503 79.9148 68.5403 82.0311 65.2144C78.9403 67.5015 75.4726 69.3081 72.2649 71.5043ZM84.0072 70.8772C88.0208 70.0576 91.1243 67.0301 93.5783 63.8729C90.1628 66.0951 87.228 68.7849 84.0072 70.8772ZM61.3541 72.8716C59.0553 73.8985 56.5096 74.6397 54.0287 75.0561C59.6405 76.0416 64.8741 72.325 69.2246 69.1412C66.3411 69.7136 64.0686 71.7926 61.3541 72.8716ZM74.7205 73.413C77.2793 72.7757 79.526 71.3332 81.0451 69.1375C78.8632 70.2553 75.9018 71.0486 74.7335 73.5169L74.7205 73.413ZM24.544 79.8064C26.5454 83.1441 30.3389 84.7796 34.132 85.5708C37.1588 86.1414 40.1337 87.1407 43.1862 87.0748C39.3276 84.9197 34.6904 84.9731 30.5722 83.2728C28.3637 82.4941 26.6616 80.7021 24.544 79.8064ZM52.6529 78.3949C54.1082 79.9012 56.5109 78.8613 58.4074 78.8347C61.1739 78.1714 64.746 78.0404 66.4208 75.403C61.9659 76.9112 57.355 78.0167 52.6529 78.3949ZM78.7502 82.8292C81.0102 82.3349 82.5684 80.4509 84.1786 78.9826C85.8928 77.5013 87.347 75.6303 88.2426 73.5128C85.0482 76.6572 81.7238 79.6069 78.7502 82.8292ZM48.6417 86.8133C50.603 86.462 52.7852 86.1885 54.0576 84.5515C52.1482 84.4741 49.6543 84.7866 48.6417 86.8133Z" fill="#DBB1B4"/>
<path d="M49.8523 8.8757L52.3071 8.25144C53.5543 8.9395 54.8146 9.73147 56.0748 10.5234C53.8796 10.693 51.6972 10.1221 49.8523 8.8757Z" fill="#A36B6C"/>
<path d="M41.657 11.6967C42.774 11.3457 43.9949 10.9816 45.1119 10.6305C46.333 11.1107 47.6711 11.6819 48.9183 12.3699C46.3854 12.3707 44.0342 12.1376 41.657 11.6967Z" fill="#935958"/>
<path d="M58.0907 18.1867C61.5586 17.2244 65.2093 19.4055 67.9897 21.3791C70.4065 23.8203 73.6543 25.3131 76.3438 27.4036C72.9142 26.1447 69.7182 24.2232 66.9766 21.7171C64.4301 19.9253 61.3122 18.6274 58.0907 18.1867Z" fill="#935958"/>
<path d="M65.2993 16.7554C68.7287 17.17 71.2494 19.5982 73.6532 21.9356C75.4463 23.6107 77.7198 24.9089 78.7467 27.2078C74.1084 23.8839 70.379 19.3907 65.2993 16.7554Z" fill="#935958"/>
<path d="M26.7354 23.1712C27.0211 22.9243 27.4107 22.6644 27.8133 22.5084C28.216 22.3524 28.6446 22.4042 29.0733 22.456C24.3983 26.4193 19.6324 30.4995 16.8414 36.0209C15.1796 38.7622 14.5441 42.1137 12.4276 44.5953C13.05 41.1399 14.4259 37.8012 16.2695 34.826C18.9699 30.2659 22.4758 26.238 26.7354 23.1712Z" fill="#935958"/>
<path d="M53.0508 19.2402C57.1685 19.2519 60.6244 21.563 64.21 23.2246C66.9123 24.5746 70.3546 25.0931 72.174 27.8204C68.5233 25.6393 64.3793 24.5754 60.7416 22.4982C58.2342 21.0182 55.5061 20.3046 53.0508 19.2402Z" fill="#935958"/>
<path d="M23.8276 29.4462C26.6975 27.0812 29.3076 24.3266 32.4114 22.1434C31.7496 24.4427 29.8146 25.8462 28.1135 27.4315C24.8021 30.485 20.9191 33.188 18.92 37.4492C17.5569 40.0476 17.0903 43.0613 15.7272 45.6596C15.4654 39.3598 19.0357 33.3185 23.8276 29.4462Z" fill="#935958"/>
<path d="M48.1543 21.437C52.4022 22.4878 57.0264 22.3305 60.7292 24.9273C56.6501 23.5387 52.0129 23.5921 48.1543 21.437Z" fill="#935958"/>
<path d="M94.1019 32.6716C90.6978 29.9318 89.0079 25.7107 87.7466 21.5415C88.8771 22.983 89.8259 24.6583 90.4629 26.3728C91.295 28.8015 93.4907 30.3206 94.1019 32.6716Z" fill="#935958"/>
<path d="M41.5452 28.4922C46.7798 28.1528 52.002 29.3982 56.4583 32.1116C60.2777 33.955 64.6426 35.0967 67.5662 38.2133C64.4743 37.1231 61.9927 35.0066 58.823 34.1373C55.6533 33.268 53.0677 31.1645 50.0019 30.2821C47.2348 29.2568 44.2732 29.2058 41.5452 28.4922Z" fill="#935958"/>
<path d="M54.8721 27.8774C57.7431 28.8897 60.5622 30.3307 63.3423 31.4599C66.9928 32.7967 69.7474 35.4067 72.7747 37.666C69.4232 37.0305 67.253 34.0306 64.252 32.8235C61.199 31.2008 57.5097 30.3966 54.8721 27.8774Z" fill="#935958"/>
<path d="M38.1686 31.0263C41.273 30.5317 44.5724 30.7515 47.5473 31.7508C50.1714 32.4774 52.3931 34.2043 55.1081 34.814C57.2775 35.2809 59.5639 35.8387 60.8634 37.7868C57.2518 35.9174 53.069 35.3861 49.5221 33.192C46.0274 31.4135 42.0136 31.3888 38.1686 31.0263Z" fill="#935958"/>
<path d="M62.4451 27.6675C66.3164 29.0821 69.2139 31.9909 72.8126 33.7563C74.1377 34.2236 75.307 35.1325 75.9828 36.3143C71.15 33.9647 66.6677 31.0434 62.4451 27.6675Z" fill="#935958"/>
<path d="M33.3629 33.1061C36.9738 32.4425 40.7279 32.9219 43.9888 34.5186C48.2239 36.3099 53.3287 35.7757 57.1745 38.6712C54.5115 38.4772 52.121 37.088 49.4581 36.894C46.7822 36.5961 44.262 35.8565 41.8066 34.7921C39.0396 33.7668 36.2337 33.274 33.3629 33.1061Z" fill="#935958"/>
<path d="M69.1479 28.9385C71.8632 30.3925 74.3967 32.0803 76.7484 34.002C73.7735 33.0028 71.227 31.211 69.1479 28.9385Z" fill="#935958"/>
<path d="M32.9092 35.3797C35.7797 34.7033 38.7673 34.9622 41.3526 36.2214C45.3669 37.9348 50.1859 37.6475 53.6291 40.699C51.5636 40.219 49.7708 39.3882 47.7053 38.9083C42.7431 38.0525 38.1829 35.3521 32.9092 35.3797Z" fill="#935958"/>
<path d="M34.6375 37.3794C38.3658 38.4953 42.1332 39.923 45.7188 41.5846C42.6921 41.014 39.7302 40.1186 36.8332 38.8985C35.9498 38.587 35.1443 38.0547 34.6375 37.3794Z" fill="#935958"/>
<path d="M96.8304 34.2293L97.9477 34.7225L100.416 35.0465C99.3118 35.5015 98.0388 35.4499 97.1948 36.2945C96.7533 36.9831 96.5458 37.8535 96.546 38.6978C96.6502 39.5291 96.9622 40.3343 97.5599 40.8927C99.054 41.8664 100.704 42.3985 102.185 43.2683C101.704 43.6452 101.107 43.9311 100.497 44.1132C99.8861 44.2952 99.2496 44.2694 98.6 44.1397C98.6649 43.815 98.6777 43.0746 98.7425 42.7498C97.5992 42.0487 96.0403 41.3997 95.754 39.958C95.4678 38.5163 95.7142 37.1133 96.2983 35.8791L95.4538 35.0351L96.8304 34.2293Z" fill="#935958"/>
<path d="M86.3356 37.2332C86.0772 41.9095 87.4945 46.4814 90.2884 50.2474C92.6276 53.7539 97.6545 53.4406 100.266 56.5962C96.9016 55.0126 92.8875 54.1435 90.1199 51.4295C87.1052 47.5856 84.4276 42.2217 86.3356 37.2332Z" fill="#935958"/>
<path d="M29.8077 45.1614C32.4451 46.8363 36.7831 45.2372 37.9793 48.8869C39.6825 54.0562 33.4358 58.1109 28.8371 56.7874C31.7594 55.6823 36.2537 55.3302 37.0709 51.7449C37.2136 51.1993 37.2524 50.6667 37.1743 50.0432C37.1092 49.5237 36.9271 48.9132 36.6542 48.4197C36.3813 47.9262 36.0174 47.5496 35.5497 47.186C35.082 46.8225 34.5364 46.6797 33.9908 46.537C34.6666 47.7189 35.1606 49.1346 35.3299 50.4854C34.1082 48.3166 32.1852 46.4467 29.8077 45.1614Z" fill="#935958"/>
<path d="M50.1634 49.26C52.8901 45.752 56.9421 43.5555 61.3064 43.0086C62.1508 43.0083 63.0211 43.2159 63.7097 43.6573C61.4885 43.619 59.2285 44.1134 57.1244 45.0103C52.6955 46.7263 50.4368 51.4422 46.2809 53.6517C44.6964 54.4835 42.7223 55.5752 40.9165 54.6405C44.4883 53.6652 47.6312 51.7938 50.1634 49.26Z" fill="#935958"/>
<path d="M68.8147 43.9673C71.4128 44.4861 73.6215 46.1091 76.1287 46.7448C78.2592 47.7443 80.9482 48.1461 82.3777 50.289C78.0384 47.6664 72.5438 47.6162 68.8147 43.9673Z" fill="#935958"/>
<path d="M57.0866 48.076C58.5542 47.1533 60.2816 46.6201 61.9702 46.6196C55.4373 49.2325 50.5938 54.3779 44.6198 58.0818C42.6587 59.2774 40.3209 59.9926 38.0348 60.279C39.7359 58.6938 42.2038 58.1734 44.1648 56.9778C48.5804 54.3136 52.5801 50.8571 57.0866 48.076Z" fill="#935958"/>
<path d="M69.4934 53.5924C67.6612 51.6055 65.2574 49.2682 66.6984 46.449C66.5565 49.5275 68.8173 51.5662 70.6624 53.6569C72.0008 55.0724 69.9231 57.0215 70.5471 58.632C72.8597 60.2419 74.8609 62.7353 77.9262 61.929C76.9521 62.5788 75.9003 63.4494 74.77 62.8522C73.055 61.8006 71.3141 60.5412 69.677 59.2687C68.1956 57.5546 71.3773 55.1505 69.4934 53.5924Z" fill="#935958"/>
<path d="M49.0879 57.5216C52.7498 53.8964 57.3863 51.3101 62.4129 50.1524C59.4517 51.79 56.1008 52.8432 53.4126 54.9744C50.7244 57.1055 48.7897 59.3533 45.7895 60.6791C43.5037 61.8099 40.932 62.3433 38.412 62.448C42.0357 61.044 46.0622 60.3283 49.0879 57.5216Z" fill="#935958"/>
<path d="M100.614 45.893C101.511 47.1527 102.122 48.6593 102.317 50.218C102.512 51.7766 102.292 53.3874 101.63 54.8424C101.161 51.9459 101.095 48.8934 100.614 45.893Z" fill="#935958"/>
<path d="M54.7642 57.338C57.5823 55.4016 60.5822 53.2315 64.2322 52.8796C57.7513 55.9082 52.3362 60.703 45.7254 63.5368C43.2318 64.6936 40.5301 65.0322 37.8281 64.5264C44.1928 63.9399 49.7254 60.9246 54.7642 57.338Z" fill="#935958"/>
<path d="M46.5184 65.6539C53.1164 63.5605 58.2456 58.1683 65.3117 57.2828C61.9219 58.8686 58.5451 60.5583 55.2983 62.4428C50.7009 65.3408 45.3371 68.0183 39.7644 67.3446C41.9984 66.6425 44.2844 66.356 46.5184 65.6539Z" fill="#935958"/>
<path d="M74.9631 57.6565L80.5741 56.109C79.9769 57.2393 79.7826 59.0579 78.1979 59.0454C77.3666 59.1495 76.5353 59.2537 75.7819 59.137L78.1976 58.201L74.9631 57.6565Z" fill="#935958"/>
<path d="M58.2218 64.7151C61.2738 62.9605 64.2864 60.0499 68.0536 60.6333C63.8065 62.1154 59.7544 64.3119 56.1701 66.872C52.4037 68.8216 48.0788 70.5245 43.8569 69.6815C48.8577 69.1604 53.8192 67.4832 58.2218 64.7151Z" fill="#935958"/>
<path d="M93.5903 58.0665C93.3698 58.8329 93.0453 59.6124 92.37 60.1192C90.4092 62.1592 88.0585 63.6147 85.4349 64.5768C88.1101 62.3417 91.0452 60.4963 93.5903 58.0665Z" fill="#935958"/>
<path d="M52.1575 71.0686C57.3401 70.3136 60.508 65.2727 65.7036 64.6216C63.0672 66.3241 60.3009 67.8317 57.7945 69.729C57.0284 70.3527 56.1322 70.7816 55.1061 71.0158C54.1709 71.1329 53.1188 71.1593 52.1575 71.0686Z" fill="#935958"/>
<path d="M72.3824 71.5952C75.5771 69.2951 79.0447 67.4884 82.1485 65.3052C80.0323 68.6312 76.149 70.4899 72.3824 71.5952Z" fill="#935958"/>
<path d="M84.0209 70.9808C87.2286 68.7846 90.1634 66.0948 93.592 63.9765C91.138 67.1337 88.0344 70.1612 84.0209 70.9808Z" fill="#935958"/>
<path d="M61.3678 72.9751C63.9654 71.8052 66.3418 69.7132 69.2383 69.2447C64.8878 72.4284 59.6542 76.1451 54.0424 75.1596C56.6142 74.6262 59.056 73.8981 61.3678 72.9751Z" fill="#935958"/>
<path d="M78.7639 82.9329C81.7245 79.6066 85.0489 76.657 88.2564 73.6164C87.3607 75.734 85.9065 77.605 84.1923 79.0863C82.5821 80.5546 81.0109 82.3347 78.7639 82.9329Z" fill="#935958"/>
<path d="M67.5069 14.1569C69.3512 13.7147 70.7026 15.2341 72.1837 16.1039C74.6393 18.0126 77.4715 19.5575 79.5766 22.0378C77.2124 21.7008 75.4193 20.0257 73.6523 18.5585C71.6514 16.9094 69.4817 15.5982 67.5069 14.1569Z" fill="#A66B6C"/>
<path d="M76.0276 13.9331C78.353 14.8027 79.9903 16.9195 82.4714 17.3474C84.0437 18.9446 85.538 20.7626 86.9285 22.5937L85.9805 23.4513L86.3837 24.984C82.4475 23.8941 81.8094 18.8024 78.4056 16.907L78.0548 16.6343L77.574 16.1668L77.2232 15.8942L76.0276 13.9331Z" fill="#C69698"/>
<path d="M77.2366 15.9985L77.5869 16.2709L77.2366 15.9985Z" fill="#8D5251"/>
<path d="M77.5872 16.271L78.0679 16.7385L77.5872 16.271Z" fill="#8D5251"/>
<path d="M45.0896 23.9318C47.1418 23.4635 49.363 23.5018 51.4155 23.8779C53.4679 24.2539 55.4816 25.1626 57.2095 26.3181C54.5727 26.3319 52.1561 24.735 49.5062 24.6448C48.0124 24.5154 46.3628 24.8277 45.0896 23.9318Z" fill="#AD7678"/>
<path d="M71.6609 48.1494C74.8306 49.0187 78.4808 49.5112 81.3651 51.4717C77.8579 51.278 74.1816 50.5777 71.6609 48.1494Z" fill="#AD7678"/>
<path d="M41.2712 25.4658C43.9862 26.0755 47.0776 25.477 49.4032 27.1909C46.7533 27.1008 43.3372 27.6344 41.2712 25.4658Z" fill="#B17A7D"/>
<path d="M63.055 25.7971C64.0551 25.3552 64.4189 25.7317 64.2374 26.8099C63.2243 27.148 62.7566 26.7844 63.055 25.7971Z" fill="#B47D7F"/>
<path d="M65.5102 26.8611C66.3282 25.8087 68.0822 27.172 67.2642 28.2245C66.3293 29.186 64.6922 27.9135 65.5102 26.8611Z" fill="#AB7373"/>
<path d="M93.3467 26.645C94.2431 27.0604 95.0616 27.6966 95.6984 28.5667C96.3221 29.3329 96.868 30.32 97.0891 31.2421C95.3741 30.1905 94.0097 28.5673 93.3467 26.645Z" fill="#A97171"/>
<path d="M97.8192 39.5939C97.6632 39.1913 97.715 38.7626 97.8707 38.321C98.0265 37.8793 98.3122 37.6324 98.5979 37.3855C98.9875 37.1256 99.4031 37.0735 99.8188 37.0214C100.247 37.0732 100.689 37.229 100.936 37.5147C102.313 38.3975 101.989 40.0213 101.73 41.3203C100.444 41.1649 98.3523 41.3214 97.8192 39.5939Z" fill="#935353"/>
<path d="M40.6171 52.2505C42.383 50.3405 44.4089 48.8201 46.5778 47.5984C45.8512 50.2225 42.9419 51.4315 40.6171 52.2505Z" fill="#AA7272"/>
<path d="M10.9626 53.9613C12.4958 55.2468 12.0289 57.4162 12.3672 59.2736C12.5245 63.8978 15.1496 68.0017 16.0213 72.4308C14.1634 71.0805 13.76 68.7036 12.8891 66.8074C11.3161 62.6772 10.6652 58.3259 10.9626 53.9613Z" fill="#915352"/>
<path d="M103.68 49.3083C103.42 47.23 102.419 45.139 103.315 43.0215C103.693 46.8792 106.955 51.8532 103.228 54.9589C103.318 53.1533 104.357 51.3344 103.68 49.3083Z" fill="#B47F81"/>
<path d="M90.7036 48.5068C93.1202 50.1038 95.9003 51.233 97.9533 53.2977C95.0565 52.9219 91.6917 51.3382 90.7036 48.5068Z" fill="#A46969"/>
<path d="M72.2983 51.5522C75.0652 51.7332 77.7541 52.1351 80.4821 52.8487C79.1703 53.3297 77.6117 53.525 76.2087 53.2786C74.8058 53.0323 73.4677 52.4611 72.2983 51.5522Z" fill="#A56B6C"/>
<path d="M10.2649 66.0809C11.7853 68.1068 12.9291 70.4966 13.5534 72.9514C11.1759 71.6662 10.3696 68.6009 10.2649 66.0809Z" fill="#A56B6C"/>
<path d="M83.809 58.3423C80.9508 56.5896 81.8975 51.5104 85.4695 51.3794C84.7294 52.211 84.1062 53.1334 83.496 54.1598C83.3405 55.4458 84.1593 56.9263 83.809 58.3423Z" fill="#A97071"/>
<path d="M73.7539 54.747C76.0009 54.1488 78.3909 53.8493 80.716 53.8745C79.3139 56.1611 75.7288 56.1882 73.7539 54.747Z" fill="#B07A7B"/>
<path d="M59.1722 71.4562C62.588 70.0783 65.5488 67.5964 69.1337 66.725C67.4846 68.7259 64.9649 69.6749 62.6922 70.9096C60.0298 72.4042 56.8218 73.7561 53.743 72.7699C55.4834 72.3407 57.3538 72.1063 59.1722 71.4562Z" fill="#A4696A"/>
<path d="M74.7342 73.5165C76.0194 71.139 78.8768 70.3588 81.0587 69.241C79.5396 71.4367 77.3059 72.9831 74.7342 73.5165Z" fill="#AB7475"/>
<path d="M52.6665 78.4984C57.3556 78.0163 61.9795 77.0147 66.4345 75.5066C64.7597 78.1439 61.2006 78.3789 58.421 78.9383C56.6285 78.9518 54.1218 80.0047 52.6665 78.4984Z" fill="#9A5E5E"/>
<path d="M48.6424 86.8128C49.655 84.7862 52.045 84.4867 54.0584 84.551C52.7859 86.1881 50.6037 86.4615 48.6424 86.8128Z" fill="#A36869"/>
</svg>
