<svg width="234" height="234" viewBox="0 0 234 234" fill="none" xmlns="http://www.w3.org/2000/svg">
<path d="M195.504 146.372L197.027 141.888L188.104 138.857L188.809 136.782L199.565 140.435L197.337 146.995L195.504 146.372Z" fill="white"/>
<path d="M190.729 153.057C189.488 152.277 188.474 151.567 187.689 150.929C186.903 150.29 186.317 149.672 185.931 149.074C185.555 148.481 185.37 147.891 185.375 147.304C185.38 146.717 185.558 146.088 185.908 145.417L187.726 146.221C187.587 146.557 187.522 146.878 187.531 147.183C187.535 147.498 187.687 147.842 187.986 148.215C188.28 148.597 188.754 149.036 189.409 149.534C190.073 150.037 190.978 150.654 192.125 151.384L194.836 153.106L191.654 159.205L181.582 153.952L182.596 152.008L190.952 156.367L192.195 153.983L190.729 153.057Z" fill="white"/>
<path d="M173.871 164.775C174.311 164.239 174.808 163.819 175.362 163.515C175.924 163.218 176.512 163.032 177.127 162.956C177.741 162.881 178.366 162.919 179.002 163.069C179.639 163.234 180.261 163.51 180.867 163.898L181.955 162.576L178.271 159.548L179.663 157.855L188.439 165.069L187.047 166.762L183.45 163.805L182.353 165.14C182.844 165.668 183.217 166.23 183.472 166.827C183.736 167.43 183.886 168.037 183.923 168.647C183.953 169.266 183.872 169.869 183.679 170.456C183.48 171.051 183.166 171.608 182.74 172.128C182.238 172.737 181.669 173.195 181.032 173.499C180.396 173.819 179.731 173.99 179.036 174.012C178.341 174.035 177.644 173.917 176.944 173.66C176.238 173.41 175.567 173.025 174.933 172.503C174.257 171.948 173.732 171.344 173.358 170.691C172.983 170.038 172.751 169.371 172.662 168.69C172.581 168.016 172.64 167.339 172.839 166.66C173.039 165.997 173.383 165.368 173.871 164.775ZM180.18 166.171C179.257 165.412 178.374 165.017 177.529 164.986C176.678 164.963 175.955 165.314 175.359 166.039C175.047 166.418 174.843 166.81 174.746 167.213C174.642 167.625 174.637 168.035 174.729 168.442C174.831 168.857 175.022 169.263 175.303 169.66C175.578 170.065 175.933 170.447 176.37 170.806C177.293 171.564 178.182 171.944 179.039 171.943C179.903 171.95 180.637 171.586 181.24 170.853C181.545 170.482 181.742 170.099 181.832 169.704C181.923 169.309 181.921 168.907 181.828 168.499C181.729 168.1 181.538 167.702 181.257 167.305C180.984 166.915 180.625 166.537 180.18 166.171Z" fill="white"/>
<path d="M167.471 183.985L170.27 181.671L164.263 174.409L165.953 173.012L171.959 180.273L174.758 177.959L175.992 179.45L168.705 185.477L167.471 183.985Z" fill="white"/>
<path d="M153.609 184.063L152.605 182.408L159.348 178.316L165.241 188.028L158.621 192.045L157.617 190.39L162.349 187.518L160.93 185.179L156.84 187.66L155.911 186.128L160.001 183.647L158.465 181.116L153.609 184.063Z" fill="white"/>
<path d="M145.26 198.133L140.99 187.606L143.021 186.782L144.843 191.274L149.618 189.338L147.795 184.845L149.842 184.015L154.111 194.542L152.065 195.372L150.339 191.117L145.565 193.053L147.291 197.309L145.26 198.133Z" fill="white"/>
<path d="M137.08 200.517L135.175 200.943L128.479 190.8L130.696 190.304L132.345 192.837L136.217 191.971L136.614 188.98L138.831 188.484L137.08 200.517ZM133.074 194.264L135.579 198.278L136.197 193.566L133.074 194.264Z" fill="white"/>
<path d="M116.913 197.244C116.91 197.009 116.954 196.79 117.048 196.586C117.13 196.382 117.245 196.199 117.392 196.037C117.539 195.885 117.713 195.765 117.915 195.677C118.116 195.589 118.334 195.543 118.569 195.54C118.793 195.537 119.007 195.576 119.211 195.659C119.414 195.741 119.597 195.856 119.76 196.003C119.911 196.161 120.031 196.341 120.119 196.542C120.207 196.743 120.253 196.961 120.257 197.196C120.26 197.42 120.22 197.634 120.138 197.838C120.055 198.042 119.94 198.219 119.793 198.371C119.635 198.533 119.456 198.658 119.254 198.747C119.053 198.835 118.84 198.88 118.616 198.884C118.382 198.887 118.162 198.847 117.959 198.765C117.755 198.682 117.577 198.562 117.425 198.404C117.274 198.257 117.154 198.083 117.066 197.882C116.967 197.68 116.916 197.468 116.913 197.244Z" fill="white"/>
<path d="M98.4101 189.47L96.8589 196.828L100.879 191.953L102.053 192.2L103.763 198.284L105.314 190.926L107.475 191.381L105.131 202.497L102.814 202.008L100.86 194.99L96.2076 200.615L93.9062 200.13L96.2496 189.015L98.4101 189.47Z" fill="white"/>
<path d="M88.2649 186.06C89.031 186.384 89.6661 186.827 90.17 187.387C90.6599 187.954 91.0268 188.578 91.2707 189.261C91.5006 189.949 91.6032 190.664 91.5785 191.407C91.5538 192.149 91.4 192.854 91.1172 193.522C90.822 194.22 90.4115 194.833 89.8858 195.364C89.3503 195.89 88.7527 196.303 88.0929 196.603C87.4233 196.899 86.7139 197.056 85.9647 197.074C85.2113 197.103 84.4662 196.961 83.7295 196.649C82.9732 196.329 82.3521 195.881 81.8663 195.305C81.3666 194.734 81.0018 194.105 80.7718 193.417C80.5419 192.728 80.4393 192.013 80.464 191.271C80.4888 190.528 80.6404 189.828 80.9191 189.17C81.2143 188.473 81.6248 187.859 82.1505 187.328C82.672 186.808 83.2627 186.398 83.9224 186.098C84.578 185.808 85.2825 185.648 86.0359 185.62C86.7852 185.601 87.5282 185.748 88.2649 186.06ZM89.0545 192.649C89.2458 192.197 89.3621 191.731 89.4034 191.25C89.4447 190.77 89.4062 190.313 89.2881 189.881C89.1601 189.444 88.9511 189.049 88.661 188.695C88.361 188.336 87.9704 188.055 87.4891 187.851C86.998 187.643 86.5242 187.558 86.0678 187.597C85.5974 187.641 85.1638 187.776 84.767 188.002C84.3604 188.223 84.0059 188.513 83.7036 188.872C83.3872 189.236 83.1376 189.634 82.9546 190.066C82.7633 190.518 82.6519 190.987 82.6205 191.471C82.5792 191.952 82.6225 192.41 82.7505 192.847C82.8686 193.279 83.0798 193.67 83.3838 194.018C83.6739 194.373 84.0547 194.65 84.5262 194.85C85.0173 195.058 85.4981 195.139 85.9685 195.095C86.4348 195.061 86.8663 194.931 87.2631 194.705C87.6557 194.489 88.0102 194.199 88.3265 193.835C88.6289 193.476 88.8715 193.081 89.0545 192.649Z" fill="white"/>
<path d="M72.6779 186.845C73.5806 185.69 74.3896 184.754 75.105 184.038C75.8205 183.321 76.4954 182.802 77.1299 182.479C77.7586 182.165 78.3644 182.041 78.9476 182.106C79.5307 182.172 80.1383 182.413 80.7705 182.83L79.7848 184.556C79.4645 184.383 79.1519 184.286 78.8471 184.264C78.5334 184.235 78.1759 184.351 77.7749 184.61C77.3649 184.864 76.8788 185.291 76.3166 185.891C75.7486 186.5 75.0426 187.338 74.1987 188.404L72.2096 190.926L66.4666 187.137L72.7222 177.654L74.5519 178.862L69.3624 186.728L71.6062 188.208L72.6779 186.845Z" fill="white"/>
<path d="M65.7404 171.816C66.3422 172.39 66.7795 173.029 67.0523 173.732C67.31 174.435 67.4322 175.149 67.4188 175.873C67.3904 176.598 67.2332 177.304 66.9474 177.989C66.6615 178.675 66.2681 179.28 65.7673 179.805C65.2443 180.352 64.6432 180.781 63.9638 181.091C63.2767 181.394 62.5716 181.569 61.8484 181.616C61.1175 181.655 60.3984 181.551 59.691 181.304C58.9763 181.064 58.3295 180.668 57.7509 180.115C57.1568 179.548 56.7346 178.909 56.4842 178.198C56.2188 177.487 56.1003 176.77 56.1287 176.045C56.1572 175.32 56.3143 174.615 56.6002 173.929C56.8861 173.243 57.2757 172.642 57.7692 172.125C58.2922 171.577 58.8933 171.148 59.5727 170.838C60.2447 170.536 60.9423 170.361 61.6655 170.315C62.3813 170.275 63.0966 170.376 63.8113 170.616C64.5187 170.863 65.1617 171.263 65.7404 171.816ZM64.147 178.258C64.4859 177.903 64.7596 177.508 64.9683 177.073C65.177 176.638 65.3026 176.198 65.3451 175.752C65.3798 175.298 65.3242 174.854 65.1784 174.42C65.0248 173.979 64.759 173.577 64.3809 173.217C63.9951 172.848 63.582 172.601 63.1415 172.476C62.6859 172.351 62.2326 172.323 61.7816 172.394C61.3229 172.458 60.8887 172.603 60.479 172.832C60.0543 173.06 59.6799 173.344 59.3558 173.684C59.017 174.039 58.7471 174.437 58.5461 174.88C58.3374 175.315 58.2157 175.759 58.1809 176.212C58.1385 176.658 58.1977 177.098 58.3587 177.532C58.5045 177.966 58.7626 178.36 59.133 178.714C59.5187 179.082 59.9394 179.329 60.395 179.454C60.8432 179.587 61.2928 179.618 61.7438 179.547C62.1875 179.484 62.6217 179.338 63.0464 179.11C63.4561 178.881 63.823 178.597 64.147 178.258Z" fill="white"/>
<path d="M52.5434 167.604L52.0109 166.883L46.1996 166.88L44.7163 164.873L51.5548 164.893L53.6343 157.826L55.0985 159.808L53.483 165.537L54.139 166.425L57.9224 163.63L59.225 165.393L50.0884 172.143L48.7858 170.38L52.5434 167.604Z" fill="white"/>
<path d="M40.6156 157.999L39.7205 156.264L47.8349 147.216L48.8767 149.235L46.8442 151.472L48.6637 154.998L51.6573 154.624L52.6991 156.643L40.6156 157.999ZM45.6484 152.539L42.4004 155.979L47.1157 155.383L45.6484 152.539Z" fill="white"/>
<path d="M38.6575 137.79C38.8833 137.726 39.1068 137.713 39.3279 137.75C39.5462 137.777 39.7526 137.84 39.9472 137.941C40.1315 138.044 40.2923 138.181 40.4295 138.353C40.5668 138.525 40.6673 138.724 40.7311 138.949C40.792 139.165 40.809 139.382 40.782 139.6C40.755 139.818 40.6914 140.025 40.5913 140.219C40.4779 140.407 40.3353 140.569 40.1635 140.706C39.9917 140.843 39.7929 140.944 39.567 141.008C39.3515 141.069 39.1346 141.085 38.9164 141.058C38.6981 141.032 38.4968 140.966 38.3125 140.863C38.115 140.753 37.9477 140.612 37.8104 140.44C37.6732 140.268 37.5741 140.074 37.5132 139.859C37.4494 139.633 37.4309 139.411 37.4579 139.193C37.4849 138.975 37.5551 138.772 37.6684 138.585C37.7715 138.4 37.909 138.24 38.0808 138.102C38.2497 137.955 38.4419 137.851 38.6575 137.79Z" fill="white"/>
<path d="M36.2848 128.247C35.5932 128.296 34.9036 128.222 34.2159 128.025C33.5168 127.818 32.8843 127.494 32.3183 127.053C31.7524 126.612 31.2799 126.057 30.901 125.389C30.5221 124.721 30.3013 123.945 30.2386 123.062C30.1646 122.019 30.3295 121.104 30.7334 120.316C31.1366 119.518 31.692 118.906 32.3997 118.482L33.6849 120.091C33.3762 120.262 33.1231 120.462 32.9254 120.69C32.717 120.919 32.5577 121.16 32.4474 121.414C32.3371 121.667 32.2648 121.929 32.2305 122.199C32.1855 122.469 32.1721 122.732 32.1902 122.988C32.2295 123.541 32.3756 124.017 32.6285 124.416C32.8806 124.805 33.1974 125.124 33.5787 125.375C33.9487 125.617 34.3674 125.79 34.8347 125.896C35.2914 126.002 35.7432 126.04 36.1901 126.008C36.6902 125.973 37.1686 125.859 37.6254 125.666C38.0716 125.474 38.4601 125.221 38.7908 124.909C39.1208 124.586 39.3778 124.215 39.5619 123.796C39.7453 123.366 39.8196 122.906 39.7848 122.417C39.7667 122.161 39.7159 121.898 39.6324 121.625C39.549 121.353 39.4294 121.1 39.2737 120.865C39.1173 120.619 38.9251 120.398 38.6972 120.2C38.4586 120.003 38.1806 119.852 37.8629 119.746L38.7723 117.869C39.2108 118.02 39.607 118.253 39.961 118.571C40.3036 118.878 40.6017 119.236 40.8554 119.646C41.1082 120.045 41.3102 120.48 41.4612 120.95C41.6122 121.421 41.704 121.885 41.7365 122.342C41.7939 123.151 41.6761 123.902 41.3832 124.597C41.0903 125.291 40.6899 125.903 40.182 126.431C39.6627 126.949 39.0671 127.371 38.3951 127.696C37.7118 128.012 37.0084 128.196 36.2848 128.247Z" fill="white"/>
<path d="M30.2414 110.797L30.4216 108.853L42.1319 105.601L41.9222 107.863L39.0048 108.653L38.6384 112.604L41.3623 113.901L41.1526 116.163L30.2414 110.797ZM37.4225 108.908L32.8328 110.057L37.127 112.094L37.4225 108.908Z" fill="white"/>
<path d="M31.7431 99.2723L36.5368 97.5744L33.1416 93.8002L33.7319 91.4904L38.3102 96.8386L44.7064 94.4273L44.1161 96.7371L39.5131 98.3351L42.781 101.961L42.1867 104.286L37.7318 99.1019L31.1488 101.598L31.7431 99.2723Z" fill="white"/>
<path d="M36.6284 83.5558L37.4169 81.7702L49.5539 82.407L48.6361 84.4854L45.6189 84.3075L44.0161 87.9374L46.1866 90.0327L45.2689 92.1111L36.6284 83.5558ZM44.0376 84.0465L39.3206 83.6777L42.745 86.9738L44.0376 84.0465Z" fill="white"/>
<path d="M50.6033 80.3373L41.0275 74.2256L43.6185 70.166C43.8997 69.7254 44.2524 69.381 44.6765 69.1329C45.0973 68.87 45.5467 68.7013 46.0245 68.6267C46.4934 68.5463 46.97 68.5531 47.4541 68.647C47.9293 68.7352 48.3602 68.9026 48.7469 69.1494C49.1515 69.4076 49.5012 69.7321 49.796 70.1227C50.0818 70.5076 50.2899 70.9251 50.4202 71.3752C50.5505 71.8253 50.5879 72.2921 50.5324 72.7755C50.477 73.259 50.3086 73.721 50.0274 74.1615L48.5813 76.4274L51.7912 78.4761L50.6033 80.3373ZM46.9494 75.3858L48.3266 73.2279C48.5447 72.8862 48.5861 72.514 48.4509 72.1113C48.3213 71.6996 48.0183 71.3417 47.5417 71.0376C47.299 70.8826 47.0602 70.7809 46.8255 70.7323C46.5818 70.678 46.3552 70.6662 46.1457 70.697C45.9362 70.7278 45.7484 70.8041 45.5821 70.9257C45.4127 71.0327 45.2763 71.1671 45.173 71.3289L43.8473 73.4059L46.9494 75.3858Z" fill="white"/>
<path d="M50.3326 60.987L51.6273 59.5262L62.9942 63.8282L61.4872 65.5285L58.6674 64.4403L56.0355 67.4099L57.465 70.0666L55.9581 71.7669L50.3326 60.987ZM57.2406 63.7103L52.8599 61.9228L55.1181 66.105L57.2406 63.7103Z" fill="white"/>
<path d="M68.3508 51.9375C68.4916 52.1252 68.5844 52.3289 68.6292 52.5486C68.6826 52.762 68.6976 52.9774 68.6741 53.195C68.6443 53.4041 68.5739 53.6036 68.463 53.7935C68.3521 53.9833 68.2028 54.1487 68.0151 54.2895C67.8359 54.4239 67.6396 54.5178 67.4263 54.5712C67.213 54.6245 66.9975 54.6395 66.7799 54.6161C66.5644 54.5777 66.3617 54.503 66.1719 54.3921C65.982 54.2812 65.8166 54.1319 65.6758 53.9442C65.5414 53.765 65.4475 53.5688 65.3941 53.3554C65.3408 53.1421 65.329 52.9309 65.3589 52.7218C65.3908 52.4978 65.4623 52.2909 65.5732 52.101C65.6841 51.9111 65.8291 51.749 66.0083 51.6146C66.196 51.4737 66.3966 51.3766 66.6099 51.3233C66.8232 51.2699 67.0376 51.2624 67.2531 51.3008C67.4622 51.3306 67.6616 51.401 67.8515 51.5119C68.0499 51.6164 68.2163 51.7583 68.3508 51.9375Z" fill="white"/>
<path d="M84.9761 48.5386L83.1838 44.7313L81.548 45.5014L81.0241 50.399L78.8238 51.4349L79.4344 46.1958C78.7322 46.2317 78.0775 46.0683 77.4706 45.7056C76.8636 45.3429 76.3966 44.8141 76.0695 44.1193C75.865 43.685 75.754 43.2362 75.7363 42.7729C75.7186 42.3097 75.7841 41.8603 75.9328 41.4248C76.0815 40.9894 76.3128 40.5916 76.6267 40.2317C76.9502 39.8671 77.3485 39.5735 77.8213 39.3509L82.1207 37.3269L86.9593 47.6049L84.9761 48.5386ZM80.9417 39.9687L78.8426 40.9569C78.6496 41.0477 78.4844 41.1727 78.3471 41.3317C78.2052 41.481 78.0936 41.6573 78.0125 41.8605C77.9364 42.0496 77.9004 42.2611 77.9044 42.495C77.9135 42.7147 77.9726 42.9404 78.0816 43.172C78.2997 43.6352 78.6098 43.9432 79.0117 44.0958C79.4234 44.2439 79.8318 44.2226 80.2372 44.0318L82.3796 43.0232L80.9417 39.9687Z" fill="white"/>
<path d="M91.6221 42.1311L95.0965 32.9134L96.7165 32.4684L99.7258 43.4226L97.6121 44.0032L95.5479 36.4896L92.1041 45.5163L90.407 45.9826L87.3977 35.0284L89.5114 34.4477L91.6221 42.1311Z" fill="white"/>
<path d="M112.642 41.6495L104.241 42.3729L103.266 31.0548L105.45 30.8667L106.259 40.256L110.674 39.8757L109.866 30.4865L112.05 30.2984L112.858 39.6877L114.548 39.5421L114.957 44.2926L112.885 44.471L112.642 41.6495Z" fill="white"/>
<path d="M126.602 36.6533C126.573 36.8862 126.499 37.0973 126.378 37.2866C126.269 37.4773 126.13 37.6428 125.962 37.7833C125.796 37.9131 125.607 38.008 125.395 38.0678C125.183 38.1276 124.961 38.143 124.728 38.1142C124.506 38.0867 124.299 38.0182 124.109 37.9086C123.918 37.799 123.753 37.6603 123.612 37.4925C123.484 37.3153 123.389 37.121 123.33 36.9093C123.27 36.6977 123.254 36.4755 123.283 36.2426C123.311 36.0203 123.379 35.8138 123.489 35.6232C123.598 35.4325 123.736 35.2722 123.903 35.1424C124.081 35.0032 124.276 34.9038 124.488 34.844C124.7 34.7842 124.917 34.768 125.139 34.7955C125.372 34.8244 125.584 34.8936 125.774 35.0031C125.965 35.1127 126.124 35.2561 126.253 35.4332C126.383 35.5997 126.478 35.7888 126.538 36.0004C126.608 36.2134 126.629 36.431 126.602 36.6533Z" fill="white"/>
<path d="M139.31 33.1339L148.15 36.212L144.414 46.9402L142.344 46.2193L145.443 37.3195L140.744 35.6831L137.645 44.5829L135.575 43.8621L139.31 33.1339Z" fill="white"/>
<path d="M154.595 43.192C153.782 44.4121 153.046 45.4065 152.387 46.175C151.728 46.9435 151.094 47.5126 150.486 47.8822C149.883 48.2425 149.288 48.4122 148.702 48.3913C148.115 48.3704 147.491 48.1759 146.829 47.8079L147.682 46.0117C148.014 46.16 148.333 46.2336 148.639 46.2327C148.954 46.237 149.301 46.0946 149.682 45.8057C150.071 45.522 150.524 45.0595 151.039 44.4184C151.559 43.768 152.2 42.8793 152.961 41.7523L154.753 39.0878L160.766 42.4311L155.246 52.3596L153.33 51.2944L157.91 43.0579L155.561 41.7517L154.595 43.192Z" fill="white"/>
<path d="M168.807 47.8845L170.329 49.1071L166.581 60.6685L164.81 59.2455L165.76 56.3764L162.667 53.891L160.083 55.4472L158.312 54.0242L168.807 47.8845ZM166.421 54.916L167.995 50.454L163.926 52.9117L166.421 54.916Z" fill="white"/>
<path d="M172.13 57.7765C172.645 57.3115 173.233 56.9447 173.896 56.6761C174.574 56.4082 175.272 56.2735 175.99 56.2719C176.707 56.2704 177.421 56.4159 178.131 56.7085C178.842 57.0011 179.494 57.4758 180.087 58.1325C180.788 58.908 181.223 59.7304 181.39 60.5998C181.565 61.4771 181.505 62.301 181.209 63.0715L179.205 62.5966C179.342 62.2712 179.419 61.9579 179.434 61.6566C179.457 61.3481 179.434 61.06 179.364 60.7921C179.295 60.5243 179.19 60.2736 179.051 60.04C178.92 59.7993 178.768 59.5839 178.596 59.394C178.224 58.9826 177.816 58.6976 177.371 58.5392C176.933 58.3888 176.486 58.3323 176.031 58.3697C175.591 58.408 175.155 58.5294 174.721 58.7341C174.296 58.9317 173.917 59.1807 173.585 59.4811C173.213 59.8173 172.907 60.2021 172.666 60.6355C172.433 61.0618 172.282 61.4998 172.214 61.9494C172.154 62.4071 172.18 62.8577 172.293 63.3015C172.414 63.7531 172.639 64.161 172.968 64.525C173.14 64.7149 173.342 64.8912 173.576 65.054C173.809 65.2169 174.06 65.3428 174.327 65.4318C174.602 65.5287 174.889 65.5848 175.191 65.6C175.5 65.608 175.812 65.5558 176.128 65.4433L176.568 67.482C176.13 67.6336 175.674 67.6936 175.2 67.6621C174.741 67.6314 174.285 67.5329 173.833 67.3666C173.388 67.2082 172.961 66.9903 172.552 66.7129C172.143 66.4355 171.785 66.1267 171.477 65.7865C170.933 65.1851 170.563 64.5207 170.365 63.7933C170.168 63.0659 170.107 62.3378 170.181 61.609C170.271 60.881 170.48 60.1816 170.808 59.5109C171.151 58.841 171.592 58.2629 172.13 57.7765Z" fill="white"/>
<path d="M189.139 73.537L187.155 70.4952L179.262 75.6449L178.064 73.8091L185.957 68.6594L183.972 65.6176L185.593 64.5597L190.761 72.4791L189.139 73.537Z" fill="white"/>
<path d="M186.533 81.2573L196.159 83.3498L196.835 84.8875L186.437 89.4626L185.554 87.4563L192.687 84.3181L183.254 82.228L182.545 80.617L192.943 76.0419L193.826 78.0483L186.533 81.2573Z" fill="white"/>
<path d="M195.016 94.0023L195.231 94.8722L200.596 97.1062L201.195 99.5293L194.888 96.8853L190.255 102.612L189.664 100.22L193.355 95.5501L193.09 94.4784L188.523 95.607L187.997 93.479L199.026 90.7534L199.552 92.8814L195.016 94.0023Z" fill="white"/>
<path d="M202.398 107.778L202.551 109.724L191.564 114.92L191.386 112.655L194.127 111.381L193.816 107.425L190.912 106.61L190.734 104.345L202.398 107.778ZM195.643 110.861L199.971 108.948L195.392 107.67L195.643 110.861Z" fill="white"/>
<path d="M196.391 126.953C196.158 126.924 195.947 126.85 195.758 126.73C195.567 126.62 195.402 126.481 195.261 126.313C195.131 126.147 195.037 125.958 194.977 125.746C194.917 125.535 194.902 125.312 194.93 125.079C194.958 124.857 195.026 124.651 195.136 124.46C195.246 124.269 195.384 124.104 195.552 123.963C195.729 123.835 195.924 123.741 196.135 123.681C196.347 123.621 196.569 123.606 196.802 123.634C197.024 123.662 197.231 123.73 197.421 123.84C197.612 123.95 197.772 124.088 197.902 124.254C198.041 124.433 198.141 124.628 198.201 124.839C198.26 125.051 198.277 125.268 198.249 125.49C198.22 125.723 198.151 125.935 198.041 126.125C197.932 126.316 197.788 126.476 197.611 126.604C197.445 126.734 197.256 126.829 197.044 126.889C196.831 126.959 196.614 126.981 196.391 126.953Z" fill="white"/>
<path d="M108.864 100.552L102.249 125.241L97.485 123.965L100.308 113.428L89.1111 110.428L86.288 120.964L81.4892 119.679L88.1046 94.9895L92.9034 96.2753L90.2292 106.255L101.426 109.256L104.1 99.2756L108.864 100.552ZM126.569 127.248L125.442 131.456L108.299 126.862L114.914 102.173L131.744 106.683L130.617 110.89L118.585 107.666L116.992 113.613L127.389 116.399L126.346 120.293L115.949 117.507L114.225 123.94L126.569 127.248ZM153.829 117.11L145.935 114.995L140.447 135.476L135.683 134.2L141.171 113.718L133.278 111.603L134.405 107.396L154.956 112.902L153.829 117.11Z" fill="white"/>
</svg>
