<svg width="210" height="282" viewBox="0 0 210 282" fill="none" xmlns="http://www.w3.org/2000/svg">
<path d="M61.0839 172.038C61.0839 172.038 57.2663 153.936 59.5274 148.377C59.5215 147.839 73.0293 155.325 70.2639 176.024C68.9308 186.661 61.0839 172.038 61.0839 172.038Z" fill="#E08826"/>
<path d="M58.462 195.688C58.462 195.688 27.7638 200.738 29.6918 210.708C31.4544 220.828 58.462 195.688 58.462 195.688Z" fill="#ED3750"/>
<path d="M63.9173 219.251C61.9206 216.654 59.6291 214.265 57.0998 212.212C52.8443 208.526 31.8786 220.564 30.1314 218.707C28.4774 216.887 29.8796 216.036 29.5624 210.765C29.3385 205.531 48.2309 204.379 50.4348 198.691C51.7355 195.334 51.6468 190.581 49.487 190.066C47.3273 189.551 26.8659 186.448 26.9113 185.501C26.93 183.792 26.0254 180.868 28.7038 177.83C31.3821 174.793 49.5507 170.25 49.5507 170.25C62.1781 165.062 74.6448 163.887 80.039 162.974C80.039 162.974 101.429 159.251 97.6641 145.995C93.899 132.739 83.7959 127.538 79.377 117.353L78.765 112.29C78.765 112.29 52.8866 125.106 55.7611 138.446C58.6928 151.915 62.5124 154.789 56.1462 156.826C49.8733 158.9 41.8109 150.092 45.4774 133.71C49.0505 117.292 56.0018 110.977 72.7645 100.099C89.5272 89.22 91.2614 84.7443 100.447 89.2687C100.447 89.2687 100.854 87.3887 90.93 67.8858C81.006 48.3828 87.1096 30.6931 103.945 19.6281C120.873 8.59924 139.266 14.5466 143.356 30.2873C147.445 46.028 145.237 53.1088 140.681 49.0912C136.125 45.0737 140.905 37.1664 132.917 30.1034C124.929 23.0403 115.522 23.7923 108.986 30.6972C102.486 37.5089 95.3642 40.1117 96.3017 52.9153C97.3323 65.755 105.746 77.8089 105.746 77.8089L109.334 86.8139C109.334 86.8139 117.344 82.1958 124.334 86.2983C131.324 90.4009 133.414 101.613 133.032 110.903C133.032 110.903 134.896 123.529 142.018 129.506C149.082 135.354 155.928 156.988 149.433 176.242C142.938 195.496 125.494 200.105 125.494 200.105C125.494 200.105 138.554 197.122 140.221 205.275C141.888 213.428 133.999 227.423 132.786 238.857C131.479 250.255 126.923 263.397 121.453 265.889C115.984 268.381 106.31 266.777 109.841 258.494C113.279 250.174 119.67 255.546 122.134 246.42C124.597 237.293 126.363 228.862 126.363 228.862C119.578 231.702 112.118 232.136 105.281 230.13C94.0819 226.649 92.6599 223.953 92.6599 223.953C92.6599 223.953 77.2156 241.67 66.1218 239.302C55.028 236.934 49.1607 240.451 42.7608 244.513C36.3608 248.576 24.4092 247.591 24.965 240.621C25.5208 233.651 35.6997 237.273 43.891 228.865C52.4914 220.508 63.9173 219.251 63.9173 219.251Z" fill="#F99F38"/>
<path d="M48.268 200.961C48.268 200.961 33.4038 201.958 29.6649 209.947C25.074 219.858 50.8895 206.374 50.232 202.258C49.5746 198.143 48.268 200.961 48.268 200.961Z" fill="#ED3750"/>
<path d="M64.627 164.831C57.3225 165.969 50.0868 168.313 43.3442 171.599C32.4102 177.121 24.453 178.006 23.2491 180.006C22.629 181.053 22.2526 182.301 22.0988 183.529C21.9449 184.756 22.107 185.998 22.3984 187.184C23.0267 188.607 23.7843 189.973 24.7074 191.189C25.366 191.98 26.2262 192.528 27.1948 192.796C28.1634 193.064 29.1832 192.923 30.1821 192.559C33.4374 191.354 38.5099 189.888 41.8306 191.281C47.1094 193.434 49.3497 196.233 48.732 199.211C48.1143 202.189 47.689 205.777 40.0022 207.625C32.3154 209.472 30.2372 207.916 29.686 210.17C29.0986 212.516 27.8213 218.027 31.8436 217.333C35.7726 216.603 38.739 216.144 53.2231 209.209C53.2231 209.209 63.7003 211.231 71.7542 208.989L80.4481 163.025C80.4481 163.025 79.8698 155.938 74.7377 146.764C74.6083 146.821 67.2945 148.813 64.627 164.831Z" fill="#F99F38"/>
<path d="M60.2495 175.575C58.1713 174.019 55.6747 173.266 53.0393 173.425C48.3795 173.55 46.102 174.169 43.9924 176.569C41.8828 178.969 39.9539 180.902 39.9539 180.902C39.9539 180.902 44.1988 180.188 48.3715 179.66C52.4719 179.318 58.1165 175.821 60.2495 175.575Z" fill="#09161A"/>
<path d="M39.9662 207.718C47.6168 205.964 47.985 202.246 48.696 199.304C48.8708 198.299 48.823 197.316 48.4231 196.41C48.1166 195.54 47.458 194.749 46.6911 194.237C45.8612 193.058 42.1675 191.519 41.7013 191.339C38.3445 190.038 33.3082 191.411 30.0528 192.616C29.1472 193.016 28.0341 193.121 27.0655 192.853C26.0969 192.585 25.2367 192.037 24.5782 191.246C23.655 190.03 22.8612 188.757 22.2691 187.241C21.5208 185.021 20.8365 180.144 23.0265 180.028C35.9443 179.349 55.2705 185.658 57.6029 191.816C60.6056 199.843 80.0875 189.697 81.3758 205.746L75.0471 212.946C68.4782 218.551 66.5585 219.631 63.6376 219.142C59.8053 218.515 50.4457 211.672 50.4457 211.672C35.9616 218.607 33.8741 217.905 29.945 218.635C27.4449 219.275 28.7828 212.501 29.3341 210.248C30.1651 208.103 32.2794 209.566 39.9662 207.718Z" fill="#F3F2F9"/>
<path d="M22.2585 182.84C22.7701 182.073 23.8925 181.114 27.2167 181.115C30.5408 181.116 33.1483 183.52 35.7241 181.301C35.7241 181.301 36.5866 183.78 33.2415 183.557C31.5328 183.538 29.8031 183.297 28.1457 182.869C27.345 184.382 26.1713 185.75 24.9195 186.767C24.6247 186.974 24.423 187.218 24.2214 187.461C24.0197 187.705 23.9114 187.985 23.8601 188.394C23.7517 188.674 23.7365 188.989 23.8146 189.341C23.8927 189.693 24.007 189.952 24.1212 190.211C23.4988 189.326 22.9125 188.348 22.5849 187.256C22.0499 185.869 21.9963 184.347 22.2585 182.84Z" fill="#09161A"/>
<path d="M76.0167 163.668C76.0167 163.668 79.6567 163.684 74.246 151.077C74.246 151.077 66.9486 158.009 68.1831 163.957C68.5385 162.486 69.3031 161.066 70.2751 159.941L69.8381 162.453L71.8008 158.495L71.5678 162.694L73.0515 160.803L72.7893 162.31C72.7893 162.31 74.5936 164.296 74.7543 160.283C75.47 161.204 75.8547 162.425 76.0167 163.668Z" fill="#ED3750"/>
<path d="M44.6988 178.344C44.6988 178.344 48.3713 171.08 54.6572 175.339C54.6572 175.339 51.5931 180.479 44.6988 178.344Z" fill="#F3F2F9"/>
<path d="M48.8831 178.893C49.9962 178.788 50.8027 177.813 50.7339 176.607C50.6651 175.401 49.8201 174.537 48.707 174.642C47.5939 174.747 46.7873 175.721 46.8561 176.928C46.9611 178.041 47.8061 178.904 48.8831 178.893Z" fill="#09161A"/>
<path d="M47.8014 175.042C47.7862 175.358 47.8643 175.71 47.9424 176.062C48.0567 176.32 48.207 176.486 48.3574 176.651C48.5077 176.817 48.7875 176.925 49.0672 177.034C49.3469 177.142 49.5696 177.121 49.7922 177.1C50.0148 177.079 50.2735 176.965 50.5323 176.851C50.9565 176.586 51.3598 176.099 51.5405 175.633C51.7211 175.166 51.7514 174.535 51.5229 174.017C50.1662 173.921 48.8515 174.269 47.8014 175.042Z" fill="#F3F2F9"/>
<path d="M48.778 169.2L51.4542 172.811L46.8374 170.057L48.778 169.2Z" fill="#00594A"/>
<path d="M42.3663 172.185L45.5937 173.543L38.2263 174.013L42.3663 172.185Z" fill="#00594A"/>
<path d="M33.9358 175.675C35.2203 175.958 36.4476 176.112 37.8043 176.209C37.8043 176.209 31.3682 180.364 29.3658 177.229C30.6805 176.88 32.2901 176.324 33.9358 175.675Z" fill="#00594A"/>
<path d="M52.1934 184.465C52.1934 184.465 56.4407 185.682 56.2369 192.574C55.9037 199.523 58.412 201.353 58.412 201.353C58.412 201.353 54.5225 200.596 54.3685 193.244C54.2506 185.799 52.1934 184.465 52.1934 184.465Z" fill="#00594A"/>
<path d="M55.6688 181.308C56.2796 181.115 63.7217 182.39 63.2835 188.226C62.8454 194.062 65.2092 196.265 65.2092 196.265C65.2092 196.265 61.9305 195.316 60.6331 188.701C59.2995 182.178 55.6688 181.308 55.6688 181.308Z" fill="#00594A"/>
<path d="M67.6765 177.166C67.6765 177.166 73.383 177.661 72.8633 184.538C72.3437 191.415 73.6095 193.407 73.6095 193.407C72.5033 190.726 71.8785 187.91 71.5125 184.98C71.3422 181.268 67.6765 177.166 67.6765 177.166Z" fill="#00594A"/>
<path d="M62.4218 165.264L62.7238 170.85L60.5686 165.618L62.4218 165.264Z" fill="#00594A"/>
<path d="M57.0124 166.492L58.8914 170.223L55.6977 166.841L57.0124 166.492Z" fill="#00594A"/>
<path d="M77.8215 182.813C78.0149 180.1 75.0653 194.078 84.0938 201.223C93.1795 208.497 77.3414 188.204 77.8215 182.813Z" fill="#00594A"/>
<path d="M78.3409 213.579L80.2839 214.653C80.8654 211.769 80.4061 208.802 79.1706 206.179C79.2721 208.685 78.9644 211.139 78.3409 213.579Z" fill="#00594A"/>
<path d="M74.2319 202.871C75.4242 199.794 76.3006 196.702 77.0267 193.444C77.0267 193.444 72.1688 200.999 69.8239 205.667C70.7353 205.806 71.6981 205.536 72.5104 205.1C73.2657 204.534 73.8706 203.804 74.2319 202.871Z" fill="#00594A"/>
<path d="M47.5539 213.876C48.1028 209.691 48.3241 204.415 48.3241 204.415C48.3241 204.415 44.9337 213.718 45.1529 215.09C45.9291 214.747 46.7054 214.405 47.5539 213.876Z" fill="#00594A"/>
<path d="M51.4714 212.069L52.3409 211.762C52.793 208.935 52.9655 205.999 53.0085 203.12C53.1379 203.063 52.0261 208.423 51.4714 212.069Z" fill="#00594A"/>
<path d="M55.1463 215.316C55.7419 215.44 56.2652 215.75 56.7525 216.153L56.8457 216.189C58.4657 211.455 58.342 203.47 58.342 203.47C58.1672 204.475 56.1766 210.996 55.1463 215.316Z" fill="#00594A"/>
<path d="M59.9078 217.697C60.2085 218.028 60.5454 218.266 60.7528 218.561C62.177 214.608 63.2854 210.641 64.2072 206.601C63.8459 207.533 59.9019 217.159 59.9078 217.697Z" fill="#00594A"/>
<path d="M92.451 163.601C92.451 163.601 92.7719 176.058 91.477 179.954C90.1822 183.849 97.046 178.036 92.451 163.601Z" fill="#00594A"/>
<path d="M93.716 223.719C93.716 223.719 85.2612 228.379 81.4959 206.543C81.4959 206.543 83.3565 220.563 93.716 223.719Z" fill="#00594A"/>
<path d="M98.1458 209.241C98.1458 209.241 90.3054 220.896 95.3372 224.24C95.3372 224.24 97.7544 219.385 98.1458 209.241Z" fill="#00594A"/>
<path d="M101.416 228.204C101.416 228.204 96.0155 219.998 106.959 205.042C106.959 205.042 101.219 223.73 101.416 228.204Z" fill="#00594A"/>
<path d="M127.419 228.627C131.138 225.671 134.22 222.147 136.793 217.996L127.419 228.627Z" fill="#00594A"/>
<path d="M133.805 238.716C133.805 238.716 124.887 245.127 127.642 245.766C130.268 246.461 133.805 238.716 133.805 238.716Z" fill="#00594A"/>
<path d="M125.743 238.488C125.743 238.488 131.589 226.168 133.706 229.562C134.671 231.223 132.297 233.198 132.297 233.198L125.743 238.488Z" fill="#00594A"/>
<path d="M120.963 229.236C120.963 229.236 126.994 211.733 129.678 212.558C132.361 213.383 120.963 229.236 120.963 229.236Z" fill="#00594A"/>
<path d="M133.12 199.521C133.12 199.521 121.049 214.898 120.121 209.82C119.287 204.778 133.12 199.521 133.12 199.521Z" fill="#00594A"/>
<path d="M126.607 200C126.607 200 110.027 195.184 107.872 189.952C105.68 184.813 126.607 200 126.607 200Z" fill="#00594A"/>
<path d="M64.7145 219.131C64.7145 219.131 71.7427 216.492 75.2696 212.925C78.7604 209.451 68.681 223.563 64.7145 219.131Z" fill="#00594A"/>
<path d="M60.3974 220.032C60.3974 220.032 70.7757 230.059 76.7652 220.69C71.2417 221.66 65.6494 221.423 60.3974 220.032Z" fill="#00594A"/>
<path d="M55.734 221.549C55.734 221.549 69.9189 228.118 67.4329 231.766C64.9107 235.508 55.734 221.549 55.734 221.549Z" fill="#00594A"/>
<path d="M48.6814 225.359C48.6814 225.359 57.253 231.468 55.2191 232.289C53.0559 233.167 48.6814 225.359 48.6814 225.359Z" fill="#00594A"/>
<path d="M46.9521 242.277C46.9521 242.277 43.5589 232.49 45.5683 232.839C47.5778 233.189 46.9521 242.277 46.9521 242.277Z" fill="#00594A"/>
<path d="M62.2113 238.323C62.2113 238.323 54.1115 224.353 57.7388 226.616C61.366 228.879 62.2113 238.323 62.2113 238.323Z" fill="#00594A"/>
<path d="M75.4661 237.882C75.4661 237.882 71.5031 232.056 72.5543 227.96C73.5484 223.733 75.4661 237.882 75.4661 237.882Z" fill="#00594A"/>
<path d="M84.1737 232.569C84.1737 232.569 81.2386 220.493 83.1221 219.507C85.0627 218.65 84.1737 232.569 84.1737 232.569Z" fill="#00594A"/>
<path d="M35.9806 234.057C35.9806 234.057 37.9262 245.643 39.3469 243.083C40.7677 240.524 35.9806 234.057 35.9806 234.057Z" fill="#00594A"/>
<path d="M30.9106 246.035C30.9106 246.035 27.514 237.641 29.4697 236.468C31.5549 235.238 30.9106 246.035 30.9106 246.035Z" fill="#00594A"/>
<path d="M98.2437 158.338C98.2437 158.338 111.063 165.664 110.162 161.347C109.26 157.03 98.2437 158.338 98.2437 158.338Z" fill="#00594A"/>
<path d="M96.5077 140.399C96.5077 140.399 107.595 133.649 106.246 130.767C104.86 127.978 96.5077 140.399 96.5077 140.399Z" fill="#00594A"/>
<path d="M81.861 120.353C81.861 120.353 89.6977 101.512 91.8086 104.367C94.0127 107.259 81.861 120.353 81.861 120.353Z" fill="#00594A"/>
<path d="M105.218 107.955C105.218 107.955 92.4233 119.941 95.7206 119.181C99.1834 118.271 100.133 120.248 105.218 107.955Z" fill="#00594A"/>
<path d="M124.83 132.07C124.83 132.07 124.478 144.051 119.761 144.047C115.044 144.042 124.445 125.593 124.445 125.593C124.445 125.593 130.015 137.51 135.235 134.278C140.456 131.046 142.601 140.456 133.444 138.624C124.287 136.792 124.83 132.07 124.83 132.07Z" fill="#00594A"/>
<path d="M79.8058 112.372C79.8058 112.372 76.9838 103.878 80.7227 95.8895C84.3323 87.9579 79.8058 112.372 79.8058 112.372Z" fill="#00594A"/>
<path d="M71.7601 117.083C71.7601 117.083 63.868 111.987 65.3703 108.387C66.8726 104.786 71.7601 117.083 71.7601 117.083Z" fill="#00594A"/>
<path d="M63.3615 125.197C63.3615 125.197 50.3459 130.556 53.6419 124.541C56.9951 118.655 63.3615 125.197 63.3615 125.197Z" fill="#00594A"/>
<path d="M46.0838 146.814C46.0838 146.814 52.8126 149.1 53.6412 145.024C54.4698 140.948 46.0838 146.814 46.0838 146.814Z" fill="#00594A"/>
<path d="M56.802 138.527C56.802 138.527 47.1499 133.822 49.9869 133.42C52.7667 132.888 56.802 138.527 56.802 138.527Z" fill="#00594A"/>
<path d="M60.4587 152.062C60.4587 152.062 48.7215 148.587 51.5877 150.877C54.2883 153.318 60.4587 152.062 60.4587 152.062Z" fill="#00594A"/>
<path d="M101.381 94.8854C101.381 94.8854 91.9904 100.577 91.517 94.6024C91.1369 88.6639 101.381 94.8854 101.381 94.8854Z" fill="#00594A"/>
<path d="M130.636 170.782C130.636 170.782 140.761 181.462 139.748 187.397C138.736 193.332 152.599 182.188 130.636 170.782Z" fill="#00594A"/>
<path d="M129.26 155.235C129.26 155.235 135.232 173.314 144.198 167.887C153.165 162.46 138.76 166.423 129.26 155.235Z" fill="#00594A"/>
<path d="M116.528 159.31C116.528 159.31 124.641 167.709 129.26 155.235C129.26 155.235 113.954 154.881 116.528 159.31Z" fill="#00594A"/>
<path d="M121.929 172.771C121.929 172.771 107.308 173.969 107.906 176.024C108.504 178.079 121.929 172.771 121.929 172.771Z" fill="#00594A"/>
<path d="M116.464 179.125C116.464 179.125 110.153 187.941 113.351 186.606C116.549 185.271 116.464 179.125 116.464 179.125Z" fill="#00594A"/>
<path d="M134.202 110.927C134.202 110.927 124.078 96.9235 125.712 95.1973C127.346 93.4711 134.202 110.927 134.202 110.927Z" fill="#00594A"/>
<path d="M132.636 96.7006C132.636 96.7006 125.966 82.6407 125.504 86.3227C125.043 90.0047 132.636 96.7006 132.636 96.7006Z" fill="#00594A"/>
<path d="M93.7927 71.5688C93.7927 71.5688 100.371 65.1092 100.771 66.0148C101.113 66.7911 98.6752 71.423 93.7927 71.5688Z" fill="#00594A"/>
<path d="M97.508 52.8464C97.508 52.8464 89.4365 53.4725 90.8166 55.7232C92.1967 57.9738 97.508 52.8464 97.508 52.8464Z" fill="#00594A"/>
<path d="M98.7956 43.1571C98.7956 43.1571 91.7172 42.881 91.8302 37.8843C91.8499 32.8515 98.7956 43.1571 98.7956 43.1571Z" fill="#00594A"/>
<path d="M106.644 33.9725C106.644 33.9725 104.104 27.5189 104.581 23.521C105.021 19.6164 106.644 33.9725 106.644 33.9725Z" fill="#00594A"/>
<path d="M112.38 28.5804C112.38 28.5804 109.87 21.4951 111.953 18.3341C114 15.2663 112.38 28.5804 112.38 28.5804Z" fill="#00594A"/>
<path d="M131.221 27.8376C131.616 24.8806 133.827 16.407 135.511 17.5958C137.102 18.7485 131.221 27.8376 131.221 27.8376Z" fill="#00594A"/>
<path d="M121.099 24.3447C121.665 25.1 119.364 14.9854 121.959 16.3129C124.332 17.6614 121.099 24.3447 121.099 24.3447Z" fill="#00594A"/>
<path d="M144.504 33.4134C144.504 33.4134 134.885 38.5875 138.757 37.7284C139.942 37.4369 141.013 36.8868 142.027 36.2072C143.077 35.4345 143.884 34.46 144.504 33.4134Z" fill="#00594A"/>
<path d="M146.621 45.3869C146.621 45.3869 142.034 42.0011 141.925 45.605C141.851 49.1156 146.621 45.3869 146.621 45.3869Z" fill="#00594A"/>
<path d="M114.954 96.3912C114.954 96.3912 112.749 113.983 111.772 111.245C110.889 108.543 115.084 93.0099 112.766 89.8595C110.448 86.709 108.646 86.6543 108.646 86.6543C108.646 86.6543 115.209 89.0901 119.11 99.5031C123.012 109.916 127.744 101.025 127.086 105.489C126.3 110.01 121.065 110.234 114.954 96.3912Z" fill="#00594A"/>
<path d="M124.345 116.438C124.345 116.438 130.722 127.381 133.632 123.469C136.636 119.592 129.588 118.684 124.345 116.438Z" fill="#00594A"/>
<path d="M137.482 146.195C137.482 146.195 140.147 153.984 146.375 152.858C152.603 151.732 142.7 149.611 137.482 146.195Z" fill="#00594A"/>
<path d="M117.717 128.563C117.717 128.563 109.906 142.91 106.651 140.791C103.268 138.729 116.602 135.316 117.717 128.563Z" fill="#00594A"/>
<path d="M109.761 180.925C111.298 180.556 98.3471 191.839 96.4052 187.44C94.4632 183.041 102.965 182.689 109.761 180.925Z" fill="#00594A"/>
<path d="M99.3179 194.038C99.3179 194.038 107.129 179.691 109.668 180.889C112.336 182.03 99.3179 194.038 99.3179 194.038Z" fill="#00594A"/>
<path d="M113.977 93.6533C113.977 93.6533 121.499 117.695 124.481 125.499C127.333 133.361 123.857 136.519 125.5 145.842C127.142 155.165 136.171 162.31 121.929 172.771C107.724 183.139 105.928 183.622 105.928 183.622C105.928 183.622 126.677 172.144 127.125 162.129C127.537 152.208 122.644 147.953 123.727 139.9C124.831 132.07 113.977 93.6533 113.977 93.6533Z" fill="#00594A"/>
<path d="M74.7918 165.445L72.2545 169.503C72.1613 169.466 71.2578 163.218 74.7918 165.445Z" fill="#00594A"/>
<path d="M69.2425 162.33C69.2425 162.33 69.4268 169.05 68.5514 168.818C67.8055 168.529 69.2425 162.33 69.2425 162.33Z" fill="#00594A"/>
<path d="M117.597 257.853C117.597 257.853 129.172 260.086 125.804 262.963C122.473 265.748 117.597 257.853 117.597 257.853Z" fill="#00594A"/>
<path d="M119.696 251.051C119.696 251.051 129.443 249.144 127.706 251.689C125.877 254.197 119.696 251.051 119.696 251.051Z" fill="#00594A"/>
<path d="M31.6535 210.074C34.3156 210.677 37.1374 210.59 39.7821 209.577C42.4267 208.564 44.7286 206.775 46.4862 204.453C44.6295 206.201 42.3579 207.358 39.9662 207.718C32.7608 209.431 30.4809 208.118 29.7583 209.983C30.2968 209.977 30.8924 210.101 31.6535 210.074Z" fill="#09161A"/>
</svg>
